<svg width="137" height="137" viewBox="0 0 137 137" fill="none" xmlns="http://www.w3.org/2000/svg">
<rect x="42.1432" y="53.2393" width="52.3956" height="31.0097" rx="1" fill="#CAD9FF"/>
<path d="M125.297 63.925C124.903 63.7349 124.619 63.3434 124.59 62.8765C123.607 47.8866 114.602 34.5272 101.086 28.0118C89.5472 22.4497 76.3107 22.4696 64.7692 28.0677C64.1469 28.3707 63.3952 28.11 63.0927 27.4866C62.7903 26.8631 63.0504 26.1126 63.6739 25.8101C75.9073 19.8743 89.9399 19.8524 102.175 25.7501C116.504 32.6576 126.053 46.8205 127.092 62.7112C127.139 63.4035 126.615 64.0002 125.923 64.0456C125.7 64.0606 125.486 64.016 125.297 63.925Z" fill="#89B922"/>
<path d="M32.043 111.914C19.8083 106.017 11.0834 95.0247 8.10627 81.7581C7.95454 81.082 8.3802 80.4099 9.05633 80.2581C9.73247 80.1064 10.4029 80.5298 10.5552 81.2076C13.3632 93.7215 21.5921 104.09 33.133 109.653C46.6503 116.169 62.7109 114.892 75.0471 106.323C75.617 105.926 76.3973 106.07 76.7932 106.638C77.1886 107.207 77.0484 107.989 76.4779 108.384C63.4013 117.47 46.3739 118.822 32.043 111.914Z" fill="#89B922"/>
<path d="M123.709 74.9385C123.084 74.6373 122.823 73.8876 123.124 73.2638L125.255 68.8432C125.556 68.2194 126.305 67.9566 126.93 68.2579C127.555 68.5591 127.816 69.3088 127.515 69.9326L125.384 74.3532C125.085 74.9776 124.334 75.2398 123.709 74.9385Z" fill="#89B922"/>
<path d="M126.986 73.7937L122.565 71.6627C121.94 71.3615 121.679 70.6117 121.98 69.9879C122.28 69.3642 123.03 69.1014 123.654 69.4026L128.075 71.5336C128.7 71.8348 128.961 72.5846 128.66 73.2084C128.36 73.8321 127.611 74.0949 126.986 73.7937Z" fill="#89B922"/>
<path d="M69.1757 15.1547C68.3022 14.7336 67.5905 13.9798 67.2452 12.9945C66.5569 11.025 67.5995 8.86213 69.5695 8.17268C71.4787 7.50543 73.7241 8.58777 74.3913 10.497C74.7249 11.4516 74.6674 12.478 74.2284 13.3888C73.7893 14.2996 73.0216 14.9851 72.067 15.3188C71.0817 15.664 70.0492 15.5758 69.1757 15.1547ZM71.3714 10.5996C71.0776 10.458 70.7288 10.4277 70.3972 10.5436C69.734 10.7753 69.3826 11.5042 69.6144 12.1674C69.8468 12.8323 70.5745 13.1831 71.2394 12.9507C71.5604 12.8394 71.8196 12.6079 71.9678 12.3005C72.1154 11.9943 72.1351 11.6473 72.0221 11.3268C71.9063 10.9953 71.6652 10.7412 71.3714 10.5996Z" fill="#89B922"/>
<path d="M25.2414 74.4864C24.9951 74.3676 24.7858 74.1692 24.6574 73.904C18.7227 61.671 18.7008 47.6385 24.5985 35.4037C31.5065 21.0728 45.6689 11.5255 61.5596 10.486C62.253 10.44 62.8485 10.9639 62.8934 11.6567C62.9387 12.3484 62.4143 12.9451 61.7226 12.9905C46.7333 13.9716 33.3738 22.977 26.8585 36.4932C21.2964 48.0318 21.3157 61.2694 26.915 72.8087C27.2169 73.4333 26.9567 74.1838 26.3333 74.4863C25.9756 74.6592 25.5748 74.647 25.2414 74.4864Z" fill="#89B922"/>
<path d="M79.7885 129.38C79.4552 129.22 79.196 128.914 79.1079 128.524C78.9562 127.848 79.3813 127.177 80.058 127.024C92.5724 124.215 102.941 115.986 108.503 104.447C115.019 90.9293 113.743 74.8687 105.173 62.5325C104.778 61.9631 104.918 61.1812 105.488 60.7864C106.059 60.3904 106.84 60.534 107.235 61.1005C116.318 74.1783 117.671 91.2062 110.763 105.536C104.866 117.77 93.8745 126.495 80.6068 129.474C80.3199 129.538 80.0337 129.498 79.7885 129.38Z" fill="#89B922"/>
<path d="M69.5522 132.309C68.6787 131.888 67.9664 131.135 67.6211 130.149C66.9328 128.18 67.9759 126.016 69.9454 125.328C71.9149 124.639 74.0789 125.683 74.7672 127.652C75.4556 129.622 74.4124 131.785 72.4429 132.474C71.4582 132.818 70.4245 132.729 69.5522 132.309ZM71.7485 127.752C71.4535 127.61 71.1058 127.58 70.7742 127.696C70.1093 127.929 69.7585 128.656 69.9909 129.321C70.2232 129.986 70.951 130.337 71.6159 130.105C72.2807 129.872 72.6315 129.145 72.3992 128.48C72.2821 128.147 72.0423 127.894 71.7485 127.752Z" fill="#89B922"/>
<path d="M9.9705 75.0537L5.54987 72.9227C4.92611 72.622 4.66334 71.8728 4.96457 71.2479C5.26579 70.623 6.01552 70.362 6.63929 70.6626L11.0599 72.7936C11.6837 73.0943 11.9464 73.8435 11.6452 74.4684C11.3457 75.0927 10.5954 75.3549 9.9705 75.0537Z" fill="#89B922"/>
<path d="M6.69472 76.199C6.07095 75.8984 5.80819 75.1492 6.10941 74.5243L8.24032 70.1037C8.54155 69.4788 9.29128 69.2177 9.91505 69.5184C10.5388 69.819 10.8016 70.5682 10.5004 71.1931L8.36945 75.6137C8.06822 76.2386 7.31849 76.4997 6.69472 76.199Z" fill="#89B922"/>
<path d="M39.4687 37.3116C39.8792 37.2245 40.3012 37.2056 40.7212 37.2C59.1991 37.2094 77.6789 37.1981 96.1587 37.2056C97.9656 37.1659 99.7158 38.286 100.478 39.917C100.927 40.7665 100.966 41.7485 100.946 42.6888C100.938 60.4723 100.949 78.2559 100.94 96.0394C100.982 98.2379 99.273 100.283 97.1237 100.686C96.242 100.834 95.347 100.764 94.4596 100.779C76.4774 100.775 58.4972 100.781 40.515 100.775C37.9815 100.857 35.6789 98.588 35.7337 96.0507C35.7281 78.4488 35.7337 60.847 35.7318 43.2451C35.7356 42.4864 35.6883 41.7182 35.834 40.9689C36.2011 39.1809 37.6863 37.6938 39.4687 37.3116ZM39.6579 39.2207C38.4053 39.5688 37.5425 40.846 37.6239 42.1345C37.6239 60.0447 37.6239 77.955 37.6239 95.8653C37.5747 96.9551 38.165 98.0525 39.1451 98.5501C39.9133 98.9683 40.8158 98.8718 41.6578 98.885C59.8235 98.8737 77.9911 98.8907 96.1568 98.8756C97.7632 98.9418 99.1652 97.4641 99.0498 95.8672C99.0517 77.955 99.0517 60.041 99.0517 42.1269C99.1065 41.0333 98.5124 39.9283 97.5286 39.4269C96.7604 39.005 95.8541 39.1072 95.0121 39.0939C77.3554 39.0996 59.6986 39.0958 42.0438 39.0958C41.2491 39.1128 40.4355 39.0201 39.6579 39.2207Z" fill="#0C2A92"/>
<path d="M41.8859 52.5696C42.1678 52.4409 42.4876 52.4617 42.7884 52.4485C59.9419 52.4617 77.0953 52.4409 94.2488 52.4598C94.9148 52.3917 95.384 53.0369 95.2989 53.6575C95.2989 63.8803 95.2989 74.1032 95.2989 84.3241C95.3897 84.9447 94.9167 85.5899 94.2507 85.5218C77.3489 85.5407 60.4471 85.5218 43.5452 85.5293C43.0476 85.5256 42.5462 85.5634 42.0543 85.4745C41.5548 85.3534 41.3372 84.8104 41.375 84.3411C41.3732 74.1107 41.375 63.8784 41.375 53.6481C41.3523 53.2318 41.4848 52.7664 41.8859 52.5696ZM43.2671 54.3462C43.2671 64.1074 43.2671 73.8704 43.2671 83.6316C59.9797 83.6335 76.6923 83.6335 93.4049 83.6316C93.4087 73.8704 93.4049 64.1074 93.4068 54.3462C76.6942 54.3462 59.9797 54.3443 43.2671 54.3462Z" fill="#0C2A92"/>
<path d="M62.9999 78V60.5L74.4999 69L62.9999 78Z" fill="white"/>
<path d="M41.894 41.4011C42.2365 41.2535 42.6206 41.2989 42.9857 41.2856C44.8097 41.3065 46.6355 41.2667 48.4614 41.3046C48.9855 41.2989 49.4074 41.7833 49.3771 42.2979C49.3866 44.3167 49.3979 46.3393 49.3715 48.3582C49.3828 48.852 48.9533 49.2929 48.4595 49.2853C46.4425 49.3156 44.4237 49.2985 42.4087 49.2929C41.877 49.3364 41.3661 48.8936 41.3869 48.3525C41.3586 46.4018 41.385 44.4511 41.3756 42.5022C41.3472 42.0765 41.4815 41.6016 41.894 41.4011ZM43.2677 43.1834C43.2677 44.5911 43.2677 45.9988 43.2677 47.4065C44.6753 47.4084 46.0849 47.4046 47.4926 47.4065C47.4907 45.9988 47.4926 44.5911 47.4926 43.1834C46.0849 43.1815 44.6753 43.1834 43.2677 43.1834Z" fill="#0C2A92"/>
<path d="M53.4244 41.3779C53.7139 41.2719 54.0261 41.2946 54.3288 41.2852C56.1585 41.2984 57.9881 41.2776 59.8158 41.2946C60.3853 41.2435 60.9038 41.7393 60.8565 42.3144C60.8659 44.3276 60.8773 46.3426 60.8508 48.3558C60.8678 48.8837 60.3778 49.3283 59.8575 49.2905C57.8878 49.3094 55.9182 49.2962 53.9504 49.2962C53.4017 49.3548 52.8474 48.9253 52.8682 48.3539C52.836 46.4032 52.8644 44.4487 52.853 42.498C52.8247 42.0552 52.976 41.5538 53.4244 41.3779ZM54.747 43.1829C54.747 44.5906 54.7489 45.9983 54.747 47.406C56.1547 47.4079 57.5643 47.4041 58.972 47.4079C58.972 45.9983 58.972 44.5906 58.972 43.1829C57.5643 43.181 56.1547 43.1829 54.747 43.1829Z" fill="#0C2A92"/>
<path d="M64.8093 41.4271C65.1386 41.2492 65.5264 41.3003 65.8859 41.2852C67.7118 41.3022 69.5395 41.2719 71.3634 41.2984C71.9084 41.2738 72.3738 41.762 72.336 42.3031C72.3549 44.2576 72.3416 46.2121 72.3416 48.1685C72.4116 48.738 71.967 49.317 71.371 49.2886C69.3503 49.3056 67.3258 49.3037 65.3051 49.2886C64.7999 49.3075 64.3382 48.878 64.3439 48.369C64.3136 46.4145 64.3401 44.4581 64.3325 42.5036C64.3117 42.0969 64.4177 41.6295 64.8093 41.4271ZM66.2265 43.1829C66.2265 44.5906 66.2227 45.9983 66.2265 47.406C67.6342 47.4079 69.0419 47.4041 70.4496 47.4079C70.4534 45.9983 70.4515 44.5906 70.4496 43.1829C69.0419 43.181 67.6342 43.1829 66.2265 43.1829Z" fill="#0C2A92"/>
<path d="M76.328 41.4006C76.6705 41.2549 77.0545 41.2984 77.4197 41.2852C79.2474 41.306 81.0771 41.2643 82.9048 41.3041C83.4365 41.3022 83.8508 41.8017 83.8149 42.3201C83.8206 44.3295 83.8338 46.3408 83.8092 48.3501C83.8281 48.9177 83.2832 49.351 82.7364 49.2962C80.7706 49.2999 78.8047 49.3056 76.8388 49.2924C76.3129 49.334 75.8096 48.8969 75.8247 48.3615C75.7925 46.4108 75.8209 44.46 75.8115 42.5093C75.7831 42.0817 75.9136 41.603 76.328 41.4006ZM77.7035 43.1829C77.7035 44.5906 77.7035 45.9983 77.7035 47.406C79.1112 47.406 80.5208 47.4041 81.9285 47.406C81.9266 45.9983 81.9285 44.5906 81.9285 43.1829C80.5189 43.181 79.1112 43.1829 77.7035 43.1829Z" fill="#0C2A92"/>
<path d="M87.8583 41.3798C88.1478 41.27 88.4618 41.2965 88.7665 41.2852C90.5961 41.2984 92.4238 41.2776 94.2535 41.2946C94.823 41.2435 95.3433 41.743 95.2922 42.3201C95.3017 44.3314 95.313 46.3445 95.2865 48.3558C95.3036 48.8875 94.8097 49.3302 94.2875 49.2905C92.3122 49.3075 90.3369 49.298 88.3635 49.2962C87.8223 49.3454 87.2831 48.9159 87.302 48.3558C87.2717 46.4013 87.3001 44.4449 87.2888 42.4885C87.2604 42.0496 87.4155 41.5557 87.8583 41.3798ZM89.1827 43.1829C89.1827 44.5906 89.1846 45.9983 89.1827 47.406C90.5904 47.406 91.9981 47.4041 93.4077 47.406C93.4077 45.9983 93.4077 44.5906 93.4077 43.1829C92 43.181 90.5904 43.1829 89.1827 43.1829Z" fill="#0C2A92"/>
<path d="M41.9195 88.7797C42.2582 88.6511 42.629 88.6908 42.9829 88.6794C44.8144 88.6965 46.6497 88.6605 48.4812 88.6965C49.0469 88.6965 49.4386 89.2546 49.3818 89.792C49.3875 91.7503 49.3913 93.7104 49.3799 95.6687C49.4121 96.1834 48.9977 96.6848 48.4661 96.6772C46.4529 96.7094 44.4398 96.6904 42.4266 96.6867C41.8495 96.7415 41.3273 96.2345 41.3822 95.6555C41.3689 93.7029 41.3784 91.7522 41.3784 89.8014C41.3481 89.3909 41.5335 88.9557 41.9195 88.7797ZM43.2686 90.5753C43.2686 91.983 43.2686 93.3907 43.2686 94.7984C44.6763 94.8003 46.0859 94.7984 47.4935 94.7984C47.4935 93.3907 47.4917 91.983 47.4935 90.5753C46.0859 90.5734 44.6763 90.5772 43.2686 90.5753Z" fill="#0C2A92"/>
<path d="M53.6134 88.7169C55.6909 88.6393 57.7741 88.6961 59.8535 88.6885C60.3738 88.6507 60.8657 89.0934 60.8506 89.6232C60.8771 91.6383 60.8657 93.6571 60.8563 95.6721C60.9036 96.2473 60.3814 96.7412 59.8119 96.6863C57.863 96.6976 55.9123 96.692 53.9635 96.6882C53.3769 96.762 52.815 96.2776 52.8604 95.6797C52.8472 93.7195 52.8528 91.7575 52.8585 89.7973C52.8131 89.3167 53.1045 88.785 53.6134 88.7169ZM54.7468 90.5749C54.7487 91.9826 54.7468 93.3903 54.7468 94.798C56.1545 94.7999 57.5641 94.798 58.9718 94.7999C58.9718 93.3903 58.9699 91.9826 58.9737 90.5768C57.5641 90.5711 56.1564 90.5768 54.7468 90.5749Z" fill="#0C2A92"/>
<path d="M65.1561 88.7075C67.1654 88.6469 69.1786 88.698 71.188 88.6829C71.7499 88.6129 72.344 89.0197 72.3308 89.6194C72.3573 91.6345 72.3478 93.6533 72.3364 95.6703C72.3781 96.2095 71.9202 96.7052 71.3753 96.6806C69.3545 96.6996 67.3338 96.6977 65.315 96.6825C64.7663 96.7109 64.2989 96.219 64.3406 95.6741C64.3217 93.7196 64.3349 91.7632 64.333 89.8087C64.2819 89.3016 64.6168 88.7453 65.1561 88.7075ZM66.227 90.5749C66.2232 91.9826 66.227 93.3903 66.227 94.798C67.6347 94.798 69.0442 94.798 70.4538 94.7999C70.45 93.3903 70.4519 91.9826 70.4519 90.5749C69.0442 90.5712 67.6347 90.5768 66.227 90.5749Z" fill="#0C2A92"/>
<path d="M76.3621 88.776C76.7613 88.6379 77.1946 88.6928 77.6109 88.6795C79.3762 88.6985 81.1415 88.6587 82.9068 88.6966C83.4744 88.6909 83.8736 89.2528 83.8187 89.7921C83.8206 91.7504 83.8282 93.7086 83.815 95.6688C83.849 96.1873 83.429 96.6886 82.8935 96.6773C81.0052 96.7151 79.1151 96.6773 77.2268 96.6962C76.8465 96.6811 76.3962 96.7246 76.1105 96.4219C75.7831 96.1418 75.8172 95.6764 75.8077 95.2885C75.8172 93.4589 75.8058 91.6312 75.8134 89.8034C75.7831 89.3891 75.9705 88.9501 76.3621 88.776ZM77.7036 90.5754C77.7036 91.9831 77.7036 93.3908 77.7036 94.8004C79.1113 94.7985 80.519 94.7985 81.9267 94.8004C81.9286 93.3908 81.9267 91.9831 81.9286 90.5754C80.519 90.5735 79.1113 90.5773 77.7036 90.5754Z" fill="#0C2A92"/>
<path d="M88.0553 88.7178C90.1252 88.6421 92.2046 88.697 94.2764 88.6894C94.8005 88.6478 95.3 89.0849 95.2868 89.6203C95.3132 91.6354 95.3019 93.6542 95.2924 95.6693C95.3416 96.2426 94.8251 96.7383 94.2594 96.6872C92.426 96.7042 90.5925 96.6815 88.7591 96.6967C88.3732 96.6815 87.9247 96.7345 87.6182 96.4488C87.2644 96.1744 87.2947 95.6901 87.2871 95.2927C87.306 93.4045 87.2682 91.5143 87.3022 89.626C87.2966 89.1946 87.6201 88.7746 88.0553 88.7178ZM89.183 90.5758C89.1849 91.9835 89.1811 93.3912 89.1848 94.8008C90.5907 94.7989 91.9984 94.7989 93.4079 94.8008C93.4098 93.3931 93.406 91.9854 93.4098 90.5777C92.0002 90.5701 90.5925 90.5777 89.183 90.5758Z" fill="#0C2A92"/>
<path d="M62.5439 58.8434C62.9299 58.5633 63.4521 58.6806 63.7832 58.9853C67.6903 62.0145 71.5974 65.0437 75.5064 68.0691C75.7846 68.2999 76.1138 68.578 76.0986 68.9792C76.1251 69.4408 75.7146 69.7379 75.3986 69.999C71.4858 73.0111 67.5957 76.0555 63.681 79.0639C63.0869 79.6315 62.0406 79.0601 62.1314 78.2654C62.1144 72.1484 62.1333 66.0294 62.122 59.9105C62.0993 59.515 62.1749 59.0628 62.5439 58.8434ZM64.0178 61.5679C64.0178 66.5176 64.0197 71.4653 64.0178 76.415C67.2173 73.9458 70.4073 71.4653 73.6049 68.9905C70.4073 66.5176 67.2192 64.0352 64.0178 61.5679Z" fill="#0C2A92"/>
</svg>
