<svg width="576" height="805" viewBox="0 0 576 805" fill="none" xmlns="http://www.w3.org/2000/svg">
<path d="M91.1178 239.94C107.751 239.94 121.236 226.463 121.236 209.839C121.236 193.216 107.751 179.739 91.1178 179.739C74.4842 179.739 61 193.216 61 209.839C61 226.463 74.4842 239.94 91.1178 239.94Z" stroke="#E3EAFE" stroke-width="5.24758"/>
<path d="M466.187 82.9816C464.47 78.5695 462.508 66.0686 476.831 68.5197C488.579 70.5297 488.898 59.4259 487.475 53.7393" stroke="#E3EAFE" stroke-width="3.57165" stroke-linecap="round"/>
<path d="M395.577 713.413C393.713 709.613 391.04 698.608 403.965 699.711C414.609 700.642 414.045 690.691 412.353 685.739" stroke="#E3EAFE" stroke-width="3.74827" stroke-linecap="round"/>
<path d="M51.3951 516.739L26.6976 543.285L2 569.831" stroke="#E3EAFE" stroke-width="3.74827" stroke-linecap="round"/>
<path d="M51.3957 574.524C54.3756 574.524 56.7914 572.11 56.7914 569.132C56.7914 566.154 54.3756 563.739 51.3957 563.739C48.4157 563.739 46 566.154 46 569.132C46 572.11 48.4157 574.524 51.3957 574.524Z" stroke="#E3EAFE" stroke-width="5.24758"/>
<path d="M227.257 302.241C233.475 302.241 238.515 297.204 238.515 290.99C238.515 284.776 233.475 279.739 227.257 279.739C221.04 279.739 216 284.776 216 290.99C216 297.204 221.04 302.241 227.257 302.241Z" stroke="#E3EAFE" stroke-width="10.4952"/>
<g clip-path="url(#clip0)">
<path fill-rule="evenodd" clip-rule="evenodd" d="M119.304 0.608643H314.696C326.139 0.608643 335.391 9.86082 335.391 21.3043V184.435C335.391 195.878 326.139 205.13 314.696 205.13H119.304C107.861 205.13 98.6086 195.878 98.6086 184.435V21.3043C98.6086 9.86082 107.861 0.608643 119.304 0.608643Z" fill="white" stroke="#0C2A92" stroke-width="2" stroke-linecap="round"/>
<path d="M204.522 102.261H188.696V169.217H204.522V102.261Z" fill="#CAD9FF"/>
<path d="M228.87 92.5217H213.044V169.217H228.87V92.5217Z" fill="#CAD9FF"/>
<path d="M253.217 119.913H237.391V169.217H253.217V119.913Z" fill="#CAD9FF"/>
<path d="M160.087 31.6522V168.609H292.174" stroke="#0C2A92" stroke-width="2" stroke-linecap="round"/>
<path d="M154 41.3914L160.087 31.6522L165.565 41.3914" stroke="#0C2A92" stroke-width="2" stroke-linecap="round"/>
</g>
<path d="M526 198.739L415.944 319.923" stroke="#E3EAFE" stroke-width="2.99712" stroke-linecap="round"/>
<path d="M489.465 263.711L398 366.118" stroke="#E3EAFE" stroke-width="2.99712" stroke-linecap="round"/>
<path fill-rule="evenodd" clip-rule="evenodd" d="M390.484 80.6619L392.058 91.9416H410.158L405.437 74.3662L390.484 80.6619Z" fill="white"/>
<path fill-rule="evenodd" clip-rule="evenodd" d="M390.567 343.12C387.471 381.156 379.707 501.613 369.844 564.78C366.433 586.552 357.672 604.705 355.783 605.964C348.281 611 359.928 605.544 390.724 589.595L446.441 338.136" fill="white"/>
<path d="M390.567 343.12C387.471 381.156 379.707 501.613 369.844 564.78C366.433 586.552 357.672 604.705 355.783 605.964C348.281 611 359.928 605.544 390.724 589.595L446.441 338.136" stroke="#372898" stroke-width="1.04928"/>
<path fill-rule="evenodd" clip-rule="evenodd" d="M362.394 275.756L336.004 341.808L389.517 358.597L416.799 361.482L441.929 298.106C446.86 285.725 446.86 271.979 441.981 259.598L438.519 250.836L421.73 224.342H371.627L363.6 271.349C363.39 272.818 362.971 274.34 362.394 275.756Z" fill="white" stroke="#0C2A92" stroke-width="2" stroke-linecap="round"/>
<path fill-rule="evenodd" clip-rule="evenodd" d="M424.511 186.62L436.683 235.884L397.649 279.901L409.716 286.984L456.619 251.623C461.288 248.108 463.439 242.127 462.075 236.461L445.077 166.002C443.083 157.66 435.948 151.627 427.501 150.892V150.84H425.98C425.928 150.84 425.875 150.84 425.823 150.84H418.32C418.268 150.84 418.163 150.84 418.11 150.84H405.781H384.638H380.914C379.235 150.84 377.661 151.102 376.139 151.574V151.364C370.683 152.361 366.119 155.929 363.758 160.913C356.255 177.019 348.701 193.073 341.198 209.18C341.198 209.18 331.807 196.378 312.973 170.776L292.774 184.679L334.483 245.432C341.041 250.574 350.537 249.419 355.678 242.861C356.675 241.602 357.462 240.133 358.039 238.612L369.529 206.189L371.837 224.552H421.363L424.511 186.62Z" fill="#89B922"/>
<path d="M405.519 134.051L409.716 150.84M391.354 150.84L389.78 138.248L391.354 150.84Z" stroke="#0C2A92" stroke-width="2" stroke-linecap="round"/>
<path d="M390.074 139.001L391.535 150.198L401.759 137.54L390.074 139.001Z" fill="#0C2A92" stroke="#0C2A92" stroke-width="0.524639"/>
<path d="M426.155 131.64L426.155 131.64C420.665 136.698 412.173 136.467 407.204 131.112L407.204 131.111L407.2 131.108C404.667 128.475 404.348 124.919 404.497 121.451C404.656 118.041 405.265 114.824 407.982 112.321C413.471 107.263 421.964 107.493 426.986 112.84L426.986 112.841C427.854 113.758 428.361 114.909 428.707 116.145C428.961 117.053 429.124 117.988 429.283 118.902C429.342 119.238 429.4 119.571 429.462 119.899C430.282 124.243 429.689 128.396 426.155 131.64Z" fill="#0C2A92" stroke="#0C2A92" stroke-width="0.524639"/>
<path fill-rule="evenodd" clip-rule="evenodd" d="M407.24 129.945C405.209 134.861 400.711 138.68 395.06 139.81C386.152 141.646 382.639 136.723 381.007 128.082C379.375 119.441 380.898 113.83 389.455 110.42C397.419 107.288 405.283 111.605 407.674 119.139C409.695 119.584 411.401 121.206 411.826 123.456C412.386 126.421 410.507 129.291 407.655 129.862C407.561 129.934 407.396 129.914 407.24 129.945Z" fill="white" stroke="#0C2A92" stroke-width="2"/>
<path d="M404.435 118.836L404.364 118.85L404.296 118.875C403.153 119.281 402.16 120.005 401.437 120.94L398.836 118.158L398.514 117.814L398.043 117.848L382.072 119.004C382.308 118.262 382.504 117.68 382.652 117.239C382.714 117.054 382.768 116.894 382.813 116.758C383.135 115.886 383.628 115.377 384.163 114.959C384.359 114.806 384.537 114.682 384.73 114.548C384.832 114.476 384.939 114.402 385.054 114.32C385.353 114.106 385.698 113.841 385.982 113.499C388.146 110.923 390.828 110.693 392.436 110.579C395.032 110.423 397.182 110.553 398.9 111.034C400.846 111.602 402.102 112.305 402.868 113.064C403.67 113.924 404.8 115.373 406.275 117.486L406.47 118.515C406.308 118.516 406.163 118.521 406.032 118.529C405.603 118.545 405.068 118.658 404.544 118.814L404.544 118.815L404.543 118.815L404.543 118.815L404.543 118.815L404.542 118.815L404.542 118.815L404.542 118.815L404.542 118.815L404.541 118.815L404.541 118.815L404.541 118.815L404.54 118.815L404.54 118.815L404.54 118.815L404.539 118.815L404.539 118.815L404.539 118.815L404.539 118.816L404.538 118.816L404.538 118.816L404.538 118.816L404.537 118.816L404.537 118.816L404.537 118.816L404.536 118.816L404.536 118.816L404.536 118.816L404.535 118.816L404.535 118.816L404.535 118.816L404.535 118.816L404.534 118.816L404.534 118.816L404.534 118.817L404.533 118.817L404.533 118.817L404.533 118.817L404.532 118.817L404.532 118.817L404.532 118.817L404.532 118.817L404.531 118.817L404.531 118.817L404.531 118.817L404.53 118.817L404.53 118.817L404.53 118.817L404.529 118.817L404.529 118.817L404.529 118.817L404.529 118.818L404.528 118.818L404.528 118.818L404.528 118.818L404.527 118.818L404.527 118.818L404.527 118.818L404.526 118.818L404.526 118.818L404.526 118.818L404.525 118.818L404.525 118.818L404.525 118.818L404.525 118.818L404.524 118.818L404.524 118.818L404.524 118.819L404.523 118.819L404.523 118.819L404.523 118.819L404.522 118.819L404.522 118.819L404.522 118.819L404.522 118.819L404.521 118.819L404.521 118.819L404.521 118.819L404.52 118.819L404.52 118.819L404.52 118.819L404.519 118.819L404.519 118.819L404.519 118.819L404.519 118.82L404.518 118.82L404.518 118.82L404.518 118.82L404.517 118.82L404.517 118.82L404.517 118.82L404.516 118.82L404.516 118.82L404.516 118.82L404.515 118.82L404.515 118.82L404.515 118.82L404.515 118.82L404.514 118.82L404.514 118.82L404.514 118.821L404.513 118.821L404.513 118.821L404.513 118.821L404.512 118.821L404.512 118.821L404.512 118.821L404.512 118.821L404.511 118.821L404.511 118.821L404.511 118.821L404.51 118.821L404.51 118.821L404.51 118.821L404.509 118.821L404.509 118.821L404.509 118.821L404.509 118.822L404.508 118.822L404.508 118.822L404.508 118.822L404.507 118.822L404.507 118.822L404.507 118.822L404.506 118.822L404.506 118.822L404.506 118.822L404.505 118.822L404.505 118.822L404.505 118.822L404.505 118.822L404.504 118.822L404.504 118.822L404.504 118.823L404.503 118.823L404.503 118.823L404.503 118.823L404.502 118.823L404.502 118.823L404.502 118.823L404.502 118.823L404.501 118.823L404.501 118.823L404.501 118.823L404.5 118.823L404.5 118.823L404.5 118.823L404.499 118.823L404.499 118.823L404.499 118.823L404.499 118.824L404.498 118.824L404.498 118.824L404.498 118.824L404.497 118.824L404.497 118.824L404.497 118.824L404.496 118.824L404.496 118.824L404.496 118.824L404.495 118.824L404.495 118.824L404.495 118.824L404.495 118.824L404.494 118.824L404.494 118.824L404.494 118.825L404.493 118.825L404.493 118.825L404.493 118.825L404.492 118.825L404.492 118.825L404.492 118.825L404.492 118.825L404.491 118.825L404.491 118.825L404.491 118.825L404.49 118.825L404.49 118.825L404.49 118.825L404.489 118.825L404.489 118.825L404.489 118.825L404.489 118.826L404.488 118.826L404.488 118.826L404.488 118.826L404.487 118.826L404.487 118.826L404.487 118.826L404.486 118.826L404.486 118.826L404.486 118.826L404.485 118.826L404.485 118.826L404.485 118.826L404.485 118.826L404.484 118.826L404.484 118.826L404.484 118.827L404.483 118.827L404.483 118.827L404.483 118.827L404.482 118.827L404.482 118.827L404.482 118.827L404.482 118.827L404.481 118.827L404.481 118.827L404.481 118.827L404.48 118.827L404.48 118.827L404.48 118.827L404.479 118.827L404.479 118.827L404.479 118.827L404.479 118.828L404.478 118.828L404.478 118.828L404.478 118.828L404.477 118.828L404.477 118.828L404.477 118.828L404.476 118.828L404.476 118.828L404.476 118.828L404.475 118.828L404.475 118.828L404.475 118.828L404.475 118.828L404.474 118.828L404.474 118.828L404.474 118.829L404.473 118.829L404.473 118.829L404.473 118.829L404.472 118.829L404.472 118.829L404.472 118.829L404.472 118.829L404.471 118.829L404.471 118.829L404.471 118.829L404.47 118.829L404.47 118.829L404.47 118.829L404.469 118.829L404.469 118.829L404.469 118.829L404.469 118.83L404.468 118.83L404.468 118.83L404.468 118.83L404.467 118.83L404.467 118.83L404.467 118.83L404.466 118.83L404.466 118.83L404.466 118.83L404.465 118.83L404.465 118.83L404.465 118.83L404.465 118.83L404.464 118.83L404.464 118.83L404.464 118.831L404.463 118.831L404.463 118.831L404.463 118.831L404.462 118.831L404.462 118.831L404.462 118.831L404.462 118.831L404.461 118.831L404.461 118.831L404.461 118.831L404.46 118.831L404.46 118.831L404.46 118.831L404.459 118.831L404.459 118.831L404.459 118.831L404.459 118.832L404.458 118.832L404.458 118.832L404.458 118.832L404.457 118.832L404.457 118.832L404.457 118.832L404.456 118.832L404.456 118.832L404.456 118.832L404.455 118.832L404.455 118.832L404.455 118.832L404.455 118.832L404.454 118.832L404.454 118.832L404.454 118.833L404.453 118.833L404.453 118.833L404.453 118.833L404.452 118.833L404.452 118.833L404.452 118.833L404.452 118.833L404.451 118.833L404.451 118.833L404.451 118.833L404.45 118.833L404.45 118.833L404.45 118.833L404.449 118.833L404.449 118.833L404.449 118.833L404.449 118.834L404.448 118.834L404.448 118.834L404.448 118.834L404.447 118.834L404.447 118.834L404.447 118.834L404.446 118.834L404.446 118.834L404.446 118.834L404.445 118.834L404.445 118.834L404.445 118.834L404.445 118.834L404.444 118.834L404.444 118.834L404.444 118.835L404.443 118.835L404.443 118.835L404.443 118.835L404.442 118.835L404.442 118.835L404.442 118.835L404.442 118.835L404.441 118.835L404.441 118.835L404.441 118.835L404.44 118.835L404.44 118.835L404.44 118.835L404.439 118.835L404.439 118.835L404.439 118.835L404.439 118.836L404.438 118.836L404.438 118.836L404.438 118.836L404.437 118.836L404.437 118.836L404.437 118.836L404.436 118.836L404.436 118.836L404.436 118.836L404.435 118.836Z" fill="#0C2A92" stroke="#0C2A92" stroke-width="2"/>
<path fill-rule="evenodd" clip-rule="evenodd" d="M377.713 355.396L360.295 397.944L348.858 347.579L377.713 355.396Z" fill="#372898"/>
<path fill-rule="evenodd" clip-rule="evenodd" d="M405.519 524.383L423.881 494.583L415.33 480.313L405.519 524.383Z" fill="#372898"/>
<path d="M296.424 301.532C296.467 295.991 300.965 291.463 306.469 291.418L469.032 290.082C474.537 290.037 478.965 294.491 478.922 300.032L476.497 612.5L303.967 613.918C298.462 613.963 294.035 609.509 294.078 603.968L296.424 301.532Z" fill="#CAD9FF"/>
<path d="M418.382 684.863C369.925 631.939 333.363 607.959 308.706 612.975C271.693 620.504 280.067 665.584 317.079 658.055C354.092 650.526 474.251 638.766 473.973 598.986C473.846 572.489 453.122 556.917 411.862 552.312" stroke="white" stroke-width="1.04928"/>
<path d="M403.797 417.192C355.334 364.29 318.77 340.348 294.104 345.366C257.08 352.899 265.447 397.953 302.471 390.42C339.495 382.887 459.735 371.06 459.519 331.298C459.392 304.786 437.868 289.579 395.051 285.653L387.959 280.252" stroke="white" stroke-width="1.04928"/>
<path d="M403.76 418.503C453.475 472.39 490.662 496.826 515.383 491.849C552.408 484.37 543.925 438.99 506.901 446.469C469.876 453.948 349.576 465.579 349.901 505.618C350.118 532.311 371.664 547.665 414.551 551.73" stroke="white" stroke-width="1.04928"/>
<path fill-rule="evenodd" clip-rule="evenodd" d="M371.65 289.449C371.282 288.505 371.545 287.456 372.227 286.774C378.995 282.209 381.723 281.265 383.979 280.268C383.926 280.321 383.874 280.321 383.769 280.373C389.225 278.117 395.311 277.75 400.977 279.324L409.319 281.685C411.837 282.419 413.306 284.99 412.572 287.508C412.572 287.561 412.519 287.666 412.519 287.718L411.994 289.345L411.312 289.449C405.699 290.499 399.928 290.289 394.367 288.872L394.157 288.82C391.848 288.085 389.75 287.876 387.861 288.085C386.13 288.295 381.408 289.135 373.696 290.604C372.909 290.866 372.017 290.341 371.65 289.449Z" fill="white" stroke="#0C2A92" stroke-width="1.04928"/>
<path fill-rule="evenodd" clip-rule="evenodd" d="M371.65 224.289L367.453 186.777L371.65 224.289Z" fill="white"/>
<path d="M371.65 224.289L367.453 186.777" stroke="#372898" stroke-width="2" stroke-linecap="round"/>
<path fill-rule="evenodd" clip-rule="evenodd" d="M312.133 171.72L299.594 154.879C298.177 152.938 296.131 151.574 293.77 150.997L282.806 148.164C281.651 147.849 280.445 148.269 279.658 149.161C279.028 149.895 279.081 150.997 279.868 151.679C279.92 151.732 279.972 151.732 279.972 151.784C285.639 155.824 288.314 157.817 288.104 157.817C287.842 157.817 283.592 157.24 275.461 156.138L263.814 149.79C262.554 149.108 260.928 149.476 260.089 150.682C259.249 151.889 259.459 153.515 260.613 154.407L269.532 161.7C271.473 163.274 273.677 164.48 276.038 165.267C283.278 167.681 288.524 169.832 291.934 171.72C295.764 173.871 298.597 176.547 300.328 179.695L312.133 171.72Z" fill="white" stroke="#0C2A92" stroke-width="2" stroke-linecap="round"/>
<path fill-rule="evenodd" clip-rule="evenodd" d="M309.556 741.081C320.431 754.498 327.169 760.999 329.769 760.645C332.37 760.231 331.483 752.843 327.109 738.481L295.962 540.187C294.011 527.597 282.19 519.027 269.601 520.978C267.178 521.332 264.873 522.101 262.745 523.224L167.056 571.985L255.712 580.318L309.556 741.081Z" fill="white" stroke="#0C2A92" stroke-width="2"/>
<path d="M181.445 545.374L266.387 511.057L263.066 502.836L178.124 537.154L181.445 545.374Z" fill="white" stroke="#372898" stroke-width="1.04928" stroke-linecap="round"/>
<path fill-rule="evenodd" clip-rule="evenodd" d="M308.255 460.574H218.122L201.572 528.543H289.933L308.255 460.574Z" fill="white" stroke="#0C2A92" stroke-width="2" stroke-linecap="round"/>
<path fill-rule="evenodd" clip-rule="evenodd" d="M302.463 465.006H222.554L210.142 514.654H288.455L302.463 465.006Z" fill="#89B922"/>
<path fill-rule="evenodd" clip-rule="evenodd" d="M292.297 519.678H176.453V528.543H290.228L292.297 519.678Z" fill="white" stroke="#372898" stroke-width="2" stroke-linecap="round"/>
<path fill-rule="evenodd" clip-rule="evenodd" d="M240.345 517.491C240.758 516.427 240.463 515.245 239.694 514.476C232.07 509.334 228.997 508.27 226.455 507.147C225.982 506.911 225.45 506.734 224.918 506.497C220.013 504.251 214.634 503.424 209.256 504.074L188.629 506.497L176.867 508.27L183.25 517.018L197.199 518.495C202.459 519.027 207.719 518.673 212.802 517.372L214.753 516.9C217.353 516.072 219.717 515.836 221.845 516.072C223.795 516.309 229.115 517.254 237.803 518.909C238.926 519.087 239.99 518.495 240.345 517.491Z" fill="white" stroke="#372898" stroke-width="2"/>
<path d="M237.898 557.248C238.061 556.085 237.251 555.009 236.087 554.845C234.923 554.682 233.847 555.492 233.684 556.656C233.52 557.82 234.331 558.896 235.495 559.059C236.658 559.223 237.734 558.412 237.898 557.248Z" fill="white"/>
<path d="M244.98 558.219C245.144 557.055 244.333 555.979 243.17 555.816C242.006 555.652 240.93 556.463 240.766 557.627C240.603 558.791 241.413 559.866 242.577 560.03C243.741 560.194 244.817 559.383 244.98 558.219Z" fill="white"/>
<path d="M252.055 559.248C252.219 558.085 251.408 557.009 250.244 556.845C249.08 556.682 248.004 557.492 247.841 558.656C247.677 559.82 248.488 560.896 249.652 561.059C250.815 561.223 251.891 560.412 252.055 559.248Z" fill="white"/>
<path d="M131.174 417.007C131.166 416.993 131.149 416.949 131.129 416.858C131.111 416.771 131.094 416.657 131.079 416.514C131.048 416.227 131.027 415.837 131.015 415.342C130.991 414.352 131.006 412.96 131.057 411.162C131.159 407.612 131.406 402.496 131.782 395.821H148.609L142.264 415.434C138.702 416.3 135.982 416.847 134.101 417.086C133.147 417.207 132.42 417.247 131.914 417.212C131.66 417.195 131.474 417.16 131.347 417.115C131.218 417.068 131.182 417.022 131.174 417.007Z" fill="white" stroke="#0C2A92" stroke-width="0.524639"/>
<path fill-rule="evenodd" clip-rule="evenodd" d="M228.465 743.977C232.07 760.881 235.143 769.747 237.626 770.574C240.108 771.402 242.709 764.427 245.309 749.592L307.546 558.745C311.506 546.629 304.886 533.626 292.77 529.666C290.465 528.898 288.042 528.543 285.618 528.543H178.226C162.15 520.623 147.669 516.013 134.785 514.653C121.9 513.294 116.876 514.949 119.713 519.677L121.132 562.941C121.486 574.762 131.179 584.101 143 584.101H252.402L228.465 743.977Z" fill="white" stroke="#0C2A92" stroke-width="2"/>
<path fill-rule="evenodd" clip-rule="evenodd" d="M289.933 529.43L243.418 528.957L177.931 528.661C161.854 520.741 147.374 516.131 134.489 514.772C121.604 513.412 112.148 515.126 106.119 519.914L107.538 563.178C107.892 574.999 117.585 584.337 129.406 584.337H242.945L289.933 529.43Z" fill="#345DEE"/>
<path fill-rule="evenodd" clip-rule="evenodd" d="M119.95 414.354L140.4 415.063L160.85 417.427L136.912 496.863L142.646 511.994L81 537.409L92.5253 489.83L103.696 427.475C105.114 419.673 112.03 414.058 119.95 414.354Z" fill="white" stroke="#0C2A92" stroke-width="2" stroke-linecap="round"/>
<path fill-rule="evenodd" clip-rule="evenodd" d="M174.148 433.326L171.252 505.138L184.55 503.542C188.097 503.128 191.643 504.606 193.771 507.502L206.242 524.11L156.299 539.182C147.551 541.841 138.331 536.877 135.671 528.129C135.139 526.356 134.903 524.465 134.962 522.574L139.099 435.513C139.572 425.584 147.433 417.546 157.362 416.895C166.051 416.363 173.557 422.924 174.089 431.612C174.148 432.203 174.148 432.735 174.148 433.326Z" fill="white" stroke="#0C2A92" stroke-width="2" stroke-linecap="round"/>
<path fill-rule="evenodd" clip-rule="evenodd" d="M142.764 415.654L146.901 400.287L142.764 415.654ZM130.293 389.117L121.486 413.881L130.293 389.117Z" fill="white"/>
<path d="M130.293 389.117L121.486 413.881M142.764 415.654L146.901 400.287L142.764 415.654Z" stroke="#0C2A92" stroke-width="1.04928" stroke-linecap="round"/>
<path fill-rule="evenodd" clip-rule="evenodd" d="M88.3881 584.102H263.336L201.572 697.286L237.33 758.754C237.685 765.551 238.158 769.452 238.808 770.575C239.458 771.639 240.345 770.161 241.586 766.083L263.277 803.378H88.329L158.131 697.286L88.3881 584.102Z" fill="white" stroke="#0C2A92" stroke-width="2" stroke-linecap="round"/>
<path fill-rule="evenodd" clip-rule="evenodd" d="M243.241 794.215L218.712 761.885C217.944 760.881 217.649 759.639 217.826 758.398L219.835 744.095L211.561 752.192L203.936 742.086L228.346 726.009C229.883 725.004 231.893 725.359 233.016 726.837C234.907 742.026 236.739 753.434 238.512 760.999C240.285 768.564 241.349 769.983 241.704 765.254L248.56 785.882C249.683 789.251 247.851 792.915 244.482 793.979C244.068 794.038 243.654 794.156 243.241 794.215ZM346.259 780.799L309.733 763.127C308.61 762.595 307.723 761.59 307.309 760.408L302.581 746.755L298.858 757.689L287.51 752.133L301.931 726.718C302.817 725.123 304.827 724.532 306.423 725.3C314.993 738.007 321.79 747.346 326.814 753.256C331.838 759.226 333.433 759.994 331.601 755.561L347.086 770.81C349.628 773.293 349.628 777.371 347.146 779.912C346.909 780.326 346.555 780.562 346.259 780.799Z" fill="#345DEE"/>
<path fill-rule="evenodd" clip-rule="evenodd" d="M129.924 393.137L128.024 384.002C126.684 374.449 134.312 367.635 143.886 367.952C154.243 368.297 157.015 373.392 160.234 383.142C163.454 392.891 162.264 398.616 152.145 400.126C150.014 400.428 147.249 400.392 143.846 399.957" fill="white"/>
<path d="M129.924 393.137L128.024 384.002C126.684 374.449 134.312 367.635 143.886 367.952C154.243 368.297 157.015 373.392 160.234 383.142C163.454 392.891 162.264 398.616 152.145 400.126C150.014 400.428 147.249 400.392 143.846 399.957" stroke="#0C2A92" stroke-width="1.04928" stroke-linecap="round"/>
<path fill-rule="evenodd" clip-rule="evenodd" d="M135.75 395.057C133.636 394.299 132.004 392.309 131.645 389.821C131.184 386.285 133.565 382.954 136.937 382.451C138.179 382.25 139.34 382.47 140.406 382.937L135.75 395.057ZM129.841 392.909L127.941 383.774C126.601 374.221 134.229 367.408 143.803 367.725C154.161 368.07 156.932 373.164 160.152 382.914C163.371 392.664 162.241 398.381 152.063 399.898C149.931 400.2 147.166 400.164 143.763 399.729" fill="white"/>
<path d="M129.841 392.909L127.941 383.774C126.601 374.221 134.229 367.408 143.803 367.725C154.161 368.07 156.932 373.164 160.152 382.914C163.371 392.664 162.241 398.381 152.063 399.898C149.931 400.2 147.166 400.164 143.763 399.729M135.75 395.057C133.636 394.299 132.004 392.309 131.645 389.821C131.184 386.285 133.565 382.954 136.937 382.451C138.179 382.25 139.34 382.47 140.406 382.937L135.75 395.057Z" stroke="#0C2A92" stroke-width="2" stroke-linecap="round"/>
<path d="M133.888 383.628L133.9 383.612L133.914 383.598C134.396 383.097 134.843 382.691 135.257 382.389C135.669 382.089 136.061 381.883 136.431 381.803C137.215 381.631 138.121 381.754 138.872 381.89C139.05 381.922 139.214 381.954 139.369 381.984C139.553 382.02 139.723 382.053 139.883 382.08C140.025 382.104 140.147 382.12 140.247 382.128C140.352 382.135 140.417 382.131 140.453 382.123L140.453 382.123L140.46 382.122C141.515 381.92 143.197 381.078 145.519 379.536C147.829 378.002 150.742 375.796 154.247 372.903L154.247 372.903L154.25 372.901C156.482 371.102 156.8 367.901 155.037 365.783C154.719 365.43 154.426 365.107 154.041 364.862L154.041 364.862L154.033 364.856C150.559 362.449 145.977 362.16 142.166 364.165C137.505 366.621 134.09 368.799 132.026 370.729L132.025 370.73C125.827 376.461 124.161 385.517 127.911 392.916C127.911 392.917 127.911 392.917 127.911 392.918L128.895 394.807L132.884 398.087C132.885 398.088 132.885 398.088 132.886 398.089C134.085 399.033 135.837 398.873 136.883 397.71C137.482 397 137.711 396.027 137.427 395.163C135.762 394.718 134.588 394.316 133.867 393.857C133.729 393.769 133.578 393.678 133.421 393.583C133.087 393.382 132.727 393.165 132.415 392.931C131.951 392.585 131.526 392.157 131.372 391.592C130.735 389.44 131.666 386.761 133.888 383.628Z" fill="#0C2A92" stroke="#0C2A92" stroke-width="0.524639"/>
<path d="M143.759 411.474L143.608 411.714L144.19 400.057L146.237 400.755L143.759 411.474Z" fill="#0C2A92" stroke="#0C2A92" stroke-width="0.524639"/>
<path fill-rule="evenodd" clip-rule="evenodd" d="M241.763 584.102H275.571H241.763Z" fill="white"/>
<path d="M241.763 584.102H275.571" stroke="#372898" stroke-width="1.04928" stroke-linecap="round"/>
<path d="M126.121 385.695C126.085 385.605 126.05 385.516 126.015 385.425C119.638 392.123 116.041 397.433 115.28 401.469C114.512 405.548 115.399 411.163 117.94 418.314C109.488 427.357 105.528 434.863 106.119 440.774C107.006 449.639 115.871 452.003 120.895 445.798C124.264 441.66 126.037 433.977 126.215 422.747C130.056 422.156 133.484 418.137 136.558 410.631C139.631 403.124 139.986 398.101 137.74 395.559M126.121 385.695C123.012 388.967 120.576 391.9 118.815 394.509C117 397.199 115.913 399.529 115.538 401.518C114.783 405.527 115.65 411.088 118.187 418.226L118.241 418.377L118.132 418.493C113.915 423.005 110.829 427.123 108.871 430.841C106.912 434.56 106.092 437.861 106.38 440.748C106.815 445.092 109.194 447.799 112.034 448.687C114.877 449.575 118.24 448.66 120.691 445.632L120.692 445.632C124 441.569 125.775 433.967 125.952 422.743L125.956 422.521L126.175 422.488C128.014 422.205 129.779 421.098 131.475 419.112C133.171 417.124 134.784 414.271 136.315 410.531C137.847 406.79 138.693 403.687 138.882 401.213C139.067 398.794 138.622 397.011 137.613 395.814M126.121 385.695C126.187 385.625 126.253 385.555 126.32 385.485C127.822 389.297 129.326 391.867 130.943 393.195C132.598 394.554 134.844 395.382 137.74 395.559M126.121 385.695C127.61 389.451 129.121 392.038 130.776 393.398C132.462 394.782 134.728 395.62 137.613 395.814M137.613 395.814C137.65 395.816 137.687 395.819 137.724 395.821L137.74 395.559M137.613 395.814C137.59 395.786 137.567 395.759 137.543 395.733L137.74 395.559" fill="#0C2A92" stroke="#0C2A92" stroke-width="0.524639"/>
<defs>
<clipPath id="clip0">
<rect width="238" height="205.739" fill="white" transform="translate(98)"/>
</clipPath>
</defs>
</svg>
