<svg width="65" height="65" viewBox="0 0 65 65" fill="none" xmlns="http://www.w3.org/2000/svg">
<rect width="65" height="65" rx="22" fill="#E4FEDF"/>
<path d="M32.6023 20.01C31.8181 19.954 31.0004 20.1332 30.2722 20.5589C29.8045 20.8267 29.3942 21.1842 29.0649 21.6109C28.7357 22.0376 28.4938 22.5251 28.3533 23.0454C28.2128 23.5658 28.1764 24.1087 28.2462 24.6432C28.316 25.1776 28.4906 25.693 28.76 26.1599L36.9822 40.3864C38.1136 42.358 40.6229 43.0077 42.5944 41.8875C44.5548 40.7673 45.2045 38.2468 44.0843 36.2865L35.8844 22.0599C35.5458 21.4767 35.0697 20.9851 34.4977 20.6278C33.9256 20.2705 33.275 20.0584 32.6023 20.01ZM26.5196 25.9358L20.5601 36.2865C20.197 36.9089 20.0038 37.6159 20 38.3365C20 38.8763 20.1063 39.4109 20.3129 39.9097C20.5195 40.4085 20.8224 40.8617 21.2041 41.2435C21.5859 41.6252 22.0391 41.9281 22.5379 42.1347C23.0367 42.3413 23.5713 42.4476 24.1111 42.4476C24.8318 42.4454 25.5391 42.2538 26.1624 41.8921C26.7856 41.5303 27.3028 41.0111 27.6622 40.3864V40.3976L31.202 34.2589C29.6897 31.6825 28.1439 29.1172 26.7548 26.4623C26.6652 26.2943 26.5868 26.1151 26.5308 25.9358H26.5196ZM26.5196 25.9358L37.2511 23.9643L26.5196 25.9358Z" fill="#6AC75A"/>
</svg>
