<svg width="65" height="65" viewBox="0 0 65 65" fill="none" xmlns="http://www.w3.org/2000/svg">
<rect width="65" height="65" rx="22" fill="#FFF6E3"/>
<path d="M27.7653 42.2227C27.7653 42.6081 27.6894 42.9898 27.5419 43.346C27.3944 43.7021 27.1782 44.0257 26.9056 44.2982C26.633 44.5708 26.3095 44.787 25.9533 44.9345C25.5972 45.082 25.2155 45.1579 24.8301 45.1579C24.4446 45.1579 24.0629 45.082 23.7068 44.9345C23.3507 44.787 23.0271 44.5708 22.7545 44.2982C22.4819 44.0257 22.2657 43.7021 22.1182 43.346C21.9707 42.9898 21.8948 42.6081 21.8948 42.2227C21.8934 41.8364 21.9684 41.4536 22.1153 41.0963C22.2622 40.7389 22.4782 40.4142 22.7509 40.1405C23.0236 39.8668 23.3476 39.6497 23.7044 39.5016C24.0612 39.3534 24.4437 39.2772 24.8301 39.2772C25.2164 39.2772 25.5989 39.3534 25.9557 39.5016C26.3125 39.6497 26.6365 39.8668 26.9092 40.1405C27.1819 40.4142 27.3979 40.7389 27.5448 41.0963C27.6917 41.4536 27.7667 41.8364 27.7653 42.2227V42.2227ZM29.5922 32.8422V41.9353C29.5922 44.0085 31.0187 45.1579 32.5274 45.1579C33.9232 45.1579 35.4627 44.1829 35.4627 41.9353V32.9858C35.4627 31.0872 34.0669 29.9069 32.5274 29.9069C31.7531 29.9201 31.0141 30.2336 30.4665 30.7812C29.9188 31.3288 29.6054 32.0678 29.5922 32.8422V32.8422ZM37.2895 23.4616V41.9353C37.2895 44.0085 38.7161 45.1579 40.2248 45.1579C41.6206 45.1579 43.1601 44.1829 43.1601 41.9353V23.6053C43.1601 21.7066 41.7643 20.5264 40.2248 20.5264C39.4504 20.5396 38.7115 20.853 38.1638 21.4007C37.6162 21.9483 37.3027 22.6873 37.2895 23.4616V23.4616Z" fill="#F0B747"/>
</svg>
