<svg width="65" height="65" viewBox="0 0 65 65" fill="none" xmlns="http://www.w3.org/2000/svg">
<rect width="65" height="65" rx="22" fill="#CFF3FB"/>
<path d="M27.2306 22.0307C27.8191 21.9303 28.4519 22.0772 28.919 22.4546C29.361 22.7902 29.625 23.3151 29.7196 23.8538C29.7784 24.3925 29.6207 24.9505 29.2995 25.3856C28.9906 25.819 28.4994 26.0895 27.9912 26.2151C27.7597 26.2434 27.5246 26.2343 27.2926 26.2257C26.6122 26.1151 25.996 25.6672 25.6951 25.0446C25.5759 24.8249 25.5358 24.5764 25.476 24.337C25.4215 24.0948 25.4808 23.849 25.5428 23.6149C25.7202 22.8132 26.423 22.1628 27.2306 22.0307Z" fill="#04C5DF"/>
<path d="M34.8872 22.6277C35.2795 22.2396 35.8236 21.9884 36.381 22.0088C36.9657 21.9799 37.5499 22.2402 37.94 22.672C38.3302 23.0483 38.4959 23.5966 38.5429 24.1226C38.4986 24.6495 38.3168 25.1851 37.9379 25.5677C37.6194 25.9221 37.1693 26.1385 36.706 26.2251C36.4045 26.231 36.0897 26.2663 35.8022 26.1535C35.5104 26.0589 35.233 25.9151 35.0005 25.7137C34.7461 25.502 34.5852 25.208 34.4088 24.9339C34.4249 24.9435 34.4559 24.9633 34.4719 24.9729C34.388 24.7853 34.326 24.5881 34.2838 24.3871C34.2025 23.7495 34.4409 23.0862 34.8872 22.6277Z" fill="#04C5DF"/>
<path d="M37.7065 26.2594C37.9 26.1397 38.0732 25.9692 38.3057 25.9275C38.6894 25.9927 38.9812 26.2851 39.2004 26.5887C39.0593 26.7153 38.884 26.7885 38.7113 26.8618C37.7771 27.2765 37.0187 28.0755 36.6686 29.0376C36.6162 29.1803 36.5286 29.3053 36.4425 29.4293C36.1769 29.4363 35.9118 29.4363 35.6467 29.4357C35.4474 29.2118 35.2929 28.9526 35.0812 28.7399C34.7381 28.3673 34.3362 28.0451 33.8776 27.827C33.689 27.7292 33.442 27.656 33.3827 27.4229C33.4565 26.8853 33.7483 26.3636 34.2208 26.0814C34.3383 26.0232 34.465 25.9414 34.6018 25.9756C34.876 26.0761 35.0887 26.2883 35.3565 26.4016C35.55 26.4839 35.7488 26.5625 35.9562 26.6009C36.2667 26.6143 36.5804 26.6239 36.8904 26.5935C37.1742 26.517 37.4548 26.4144 37.7065 26.2594Z" fill="#04C5DF"/>
<path d="M24.8217 26.5774C24.9772 26.2968 25.245 26.0782 25.5432 25.9671C25.9066 25.8746 26.145 26.2113 26.4432 26.3444C26.7431 26.4839 27.0606 26.6293 27.3994 26.6106C27.6362 26.6079 27.8761 26.6261 28.1113 26.5881C28.3695 26.5149 28.6276 26.4283 28.858 26.2878C29.0343 26.1782 29.2 26.0478 29.3972 25.9756C29.5218 25.942 29.6372 26.0136 29.7457 26.0633C30.2112 26.3273 30.5217 26.8254 30.5992 27.3503C30.6628 27.5592 30.4122 27.6827 30.2572 27.7597C29.6404 28.0328 29.1113 28.4769 28.6923 29.0018C28.5774 29.1461 28.4892 29.3182 28.3363 29.4277C28.0771 29.4491 27.8163 29.4309 27.5565 29.4288C27.4705 29.3053 27.3823 29.1803 27.3305 29.0376C26.9798 28.0745 26.2198 27.2749 25.284 26.8596C25.1221 26.78 24.919 26.7458 24.8217 26.5774Z" fill="#04C5DF"/>
<path d="M23.036 27.3155C23.4353 27.2711 23.8409 27.2882 24.2418 27.3016C25.2621 27.4806 26.176 28.1957 26.5811 29.1514C26.8409 29.7254 26.9002 30.3785 26.7912 30.9953C26.6303 31.8675 26.0857 32.6655 25.3187 33.1149C24.3535 33.7103 23.0665 33.7167 22.0938 33.1353C21.3599 32.7023 20.7939 31.9653 20.6197 31.1262C20.3215 29.999 20.7704 28.735 21.6614 27.9959C22.0537 27.6581 22.5363 27.4389 23.036 27.3155Z" fill="#04C5DF"/>
<path d="M39.7573 27.3011C40.2522 27.3021 40.7701 27.223 41.2452 27.3978C42.1581 27.6779 42.9304 28.3962 43.258 29.2951C43.459 29.8248 43.5429 30.4127 43.4109 30.9691C43.2195 32.1951 42.2083 33.2459 40.9914 33.488C39.7845 33.7836 38.4238 33.2555 37.7274 32.2245C37.4719 31.8803 37.3164 31.4725 37.2148 31.0589C37.1903 30.6211 37.1887 30.1797 37.217 29.7419C37.3613 29.1701 37.6307 28.6174 38.0609 28.2059C38.5082 27.7308 39.1191 27.4208 39.7573 27.3011Z" fill="#04C5DF"/>
<path d="M31.5352 28.1236C32.6415 27.974 33.7997 28.3946 34.564 29.207C34.9622 29.6522 35.2679 30.1888 35.4074 30.7719C35.5388 31.1807 35.4972 31.6147 35.4918 32.037C35.3758 32.8675 34.9707 33.6585 34.3459 34.2213C33.889 34.6211 33.3315 34.9044 32.742 35.046C32.2455 35.0727 31.7463 35.0732 31.2503 35.0455C30.4449 34.8456 29.6833 34.3918 29.1937 33.712C28.7351 33.0963 28.4583 32.324 28.4994 31.5522C28.4759 30.905 28.7057 30.2716 29.0408 29.7254C29.5785 28.8526 30.5266 28.2701 31.5352 28.1236Z" fill="#04C5DF"/>
<path d="M20.0783 33.4806C20.3103 33.3042 20.5775 33.1124 20.8838 33.1359C21.1099 33.1546 21.298 33.2957 21.4744 33.4261C21.9014 33.7489 22.4043 33.9654 22.9238 34.0856C23.4326 34.1123 23.9436 34.1134 24.4518 34.0856C24.9858 33.9675 25.4941 33.7313 25.9328 33.4047C26.083 33.2914 26.2647 33.2289 26.4459 33.1872C27.0183 33.2214 27.3903 33.7051 27.7441 34.0963C27.7238 34.3593 27.4855 34.5004 27.315 34.6703C26.6859 35.2406 26.2867 36.0385 26.1493 36.8718C26.1279 37.2726 26.1434 37.6751 26.1381 38.077C26.1386 38.1684 26.1156 38.2608 26.0681 38.3399C25.9558 38.4687 25.7693 38.4116 25.6197 38.4196C24.8078 38.3603 23.9949 38.1978 23.1788 38.2908C22.2146 38.3538 21.2435 38.4516 20.313 38.7285C19.9971 38.8161 19.6786 38.9818 19.3434 38.8904C19.1783 38.8006 19.0287 38.6323 19.0383 38.4335C19.0463 38.1871 19.0067 37.9434 19.0003 37.6981C19.0196 37.1112 18.9704 36.5222 19.0335 35.9381C19.0404 35.7328 19.034 35.5276 19.0404 35.3224C19.1371 34.6067 19.5059 33.9269 20.0783 33.4806Z" fill="#04C5DF"/>
<path d="M42.9025 33.1887C43.1067 33.0994 43.3451 33.1224 43.5375 33.2314C44.2232 33.5938 44.7272 34.272 44.8993 35.0261C44.9998 35.3201 44.9452 35.6338 44.9666 35.9374C45.0265 36.4863 44.9821 37.04 44.9966 37.591C45.0137 37.8064 44.9602 38.0181 44.964 38.2329C44.9517 38.3708 44.9891 38.5253 44.9062 38.6477C44.794 38.8513 44.538 39.0052 44.305 38.9251C43.8475 38.7733 43.3862 38.6295 42.9132 38.5354C42.6545 38.5146 42.4071 38.4269 42.1489 38.4109C41.4034 38.342 40.6594 38.2319 39.909 38.2725C39.6343 38.3243 39.3521 38.2896 39.0795 38.3532C38.7423 38.3836 38.4045 38.444 38.0651 38.4168C37.9261 38.4018 37.8727 38.249 37.8636 38.1287C37.8519 37.7075 37.8738 37.2853 37.8492 36.8642C37.7284 36.1442 37.4147 35.4559 36.9288 34.9086C36.745 34.6798 36.4884 34.5248 36.3041 34.2977C36.2485 34.1037 36.3922 33.9471 36.5061 33.8097C36.7797 33.504 37.1271 33.2143 37.5531 33.1871C37.7337 33.2287 37.9149 33.2913 38.0651 33.4035C38.505 33.7327 39.0165 33.9684 39.5525 34.0866C40.0592 34.1122 40.568 34.1122 41.0747 34.086C41.5188 33.9839 41.9501 33.8092 42.3333 33.5601C42.5236 33.4383 42.6925 33.2795 42.9025 33.1887Z" fill="#04C5DF"/>
<path d="M28.6378 34.6682C28.7736 34.6564 28.9115 34.657 29.0467 34.6778C29.2685 34.7409 29.4449 34.8969 29.6303 35.0263C30.067 35.3405 30.5737 35.5468 31.0921 35.6805C31.4133 35.7104 31.7313 35.782 32.0531 35.7948C32.4464 35.7216 32.8563 35.728 33.2342 35.5853C33.6099 35.4619 33.9755 35.2983 34.3015 35.0728C34.4453 34.9787 34.5784 34.8681 34.7312 34.7884C34.9739 34.7574 35.223 34.7596 35.4661 34.7863C35.7478 34.9039 35.9626 35.1294 36.1738 35.3416C36.5575 35.72 36.7921 36.2245 36.9327 36.7387C36.9632 36.9498 36.9519 37.1647 36.9557 37.3774C36.9541 38.4303 36.9578 39.4832 36.9541 40.5361C36.9829 40.7461 36.7959 40.9054 36.6184 40.9743C36.3384 41.0491 36.0551 40.9471 35.7895 40.8642C34.9931 40.6093 34.1599 40.527 33.3379 40.404C32.4165 40.3875 31.494 40.3757 30.5737 40.4126C30.1087 40.512 29.6293 40.5152 29.168 40.6349C28.5988 40.7188 28.0563 40.9171 27.5069 41.078C27.12 41.1544 26.8132 40.7878 26.7971 40.4276C26.7918 39.4457 26.7961 38.4634 26.795 37.4811C26.8137 37.1983 26.8741 36.9199 26.9195 36.6404C27.1109 35.9439 27.5443 35.3101 28.1461 34.905C28.2984 34.8077 28.4534 34.6901 28.6378 34.6682Z" fill="#04C5DF"/>
</svg>
