<svg width="65" height="65" viewBox="0 0 65 65" fill="none" xmlns="http://www.w3.org/2000/svg">
<rect width="65" height="65" rx="22" fill="#EEF0FF"/>
<path d="M21 28.3848C23.4615 25.923 25.923 23.4615 28.3848 21C30.1924 22.8076 32 24.6152 33.8072 26.4231C33.2693 26.9618 32.731 27.5004 32.1924 28.0386C31.8844 27.7312 31.5773 27.4232 31.2692 27.1158C30.5766 27.8077 29.885 28.5004 29.1923 29.1923C28.6537 28.6541 28.1151 28.1155 27.5769 27.5769C28.2688 26.8842 28.9618 26.1926 29.6534 25.5C29.2308 25.077 28.8078 24.654 28.3848 24.2313C27.0002 25.6156 25.6156 27.0002 24.2313 28.3851C25.5003 29.6545 26.7696 30.9231 28.0386 32.1924C27.5004 32.731 26.9618 33.2693 26.4231 33.8072C24.6152 32 22.8076 30.1924 21 28.3848Z" fill="#465DFF"/>
<path d="M38.9759 22.9824C39.1975 22.6404 39.688 22.521 40.049 22.702C40.2138 22.7816 40.3768 22.8709 40.5212 22.9845C41.4481 23.9032 42.363 24.835 43.2945 25.7495C43.4524 25.9326 43.5199 26.1843 43.4936 26.4235C43.4676 26.6883 43.3347 26.9347 43.1477 27.121C42.5731 27.6966 41.9978 28.2709 41.4229 28.8462C40.0379 27.4619 38.6537 26.077 37.2691 24.6924C37.8375 24.1216 38.4103 23.5553 38.9759 22.9824Z" fill="#465DFF"/>
<path d="M22.6155 39.2311C27.1151 34.7692 31.615 30.3076 36.1153 25.8461C37.4615 27.1923 38.8077 28.5381 40.1539 29.8846C35.6924 34.3849 31.2308 38.8849 26.7689 43.3845C25.3843 43.3845 24.0001 43.3845 22.6155 43.3845C22.6155 41.9999 22.6155 40.6157 22.6155 39.2311Z" fill="#465DFF"/>
<path d="M37.9614 33.9232C38.4996 33.3846 39.0383 32.846 39.5769 32.3077C41.3848 34.1153 43.1924 35.9229 45 37.7308C42.5385 40.1539 40.0771 42.5769 37.6152 45C35.8076 43.1924 34 41.3848 32.1928 39.5769C32.7307 39.0382 33.269 38.4996 33.8076 37.9614C35.0769 39.2304 36.3459 40.4997 37.6152 41.7687C38.9998 40.4228 40.3848 39.0774 41.7687 37.7305C41.3457 37.2694 40.923 36.8076 40.5004 36.3466C39.8074 37.0382 39.1158 37.7312 38.4231 38.4231C37.8845 37.8849 37.3459 37.3463 36.8077 36.8077C37.4996 36.115 38.1923 35.4234 38.8842 34.7307C38.5768 34.4611 38.2688 34.1928 37.9614 33.9232Z" fill="#465DFF"/>
</svg>
