<svg width="410" height="365" viewBox="0 0 410 365" fill="none" xmlns="http://www.w3.org/2000/svg">
<mask id="mask0" mask-type="alpha" maskUnits="userSpaceOnUse" x="0" y="0" width="410" height="365">
<rect width="410" height="364.639" fill="#C4C4C4"/>
</mask>
<g mask="url(#mask0)">
<path fill-rule="evenodd" clip-rule="evenodd" d="M95.5651 313.983L78.9681 317.225L66.5204 321.645C55.2582 325.673 45.0827 332.157 36.6855 340.507C36.883 340.31 37.1794 340.016 37.377 339.819C34.3144 342.963 30.4616 346.401 22.5583 358.582C21.8668 360.252 22.2619 362.119 23.5462 363.396C24.7317 364.575 26.51 364.673 27.7943 363.593L36.7843 355.734C42.5142 352.688 46.7622 350.723 49.6271 349.938C52.4921 349.152 56.1474 348.071 60.4942 346.794C62.5688 346.99 64.2482 348.268 65.0386 350.232C66.1253 352.983 64.7422 356.127 61.9761 357.207L60.2966 357.895L46.1694 360.645H46.0706C43.8972 361.137 42.5141 363.298 43.0081 365.459C43.5021 367.817 45.6755 369.389 48.0465 369.192L60.9881 368.308C66.6192 367.915 72.0528 366.245 76.7948 363.396C79.8573 361.53 82.2283 359.958 84.0065 358.582C86.9703 356.225 90.6255 352.197 95.0712 346.696L98.5289 345.615L227.946 306.124C236.54 303.471 243.357 296.89 246.123 288.343L282.972 176.254C286.134 166.627 280.799 156.214 271.117 153.07C269.537 152.579 267.857 152.285 266.079 152.186C251.754 151.597 238.813 160.831 234.861 174.584L209.076 263.685L95.5651 313.983Z" fill="white" stroke="#0C2A92" stroke-width="1.75061" stroke-linecap="round"/>
<path fill-rule="evenodd" clip-rule="evenodd" d="M330.67 140.796L300.182 145.537L261.224 151.662C255.943 153.539 252.058 157.885 250.862 163.318L247.574 178.629C245.083 190.088 245.282 201.942 248.172 213.4L268.199 293.413L351.892 288.968L344.519 151.859C344.121 145.34 338.541 140.302 331.965 140.697C331.567 140.697 331.168 140.697 330.67 140.796Z" fill="#89B922"/>
<path fill-rule="evenodd" clip-rule="evenodd" d="M348.434 263.124C348.434 263.314 348.294 263.476 348.105 263.503V263.503C347.903 263.532 347.713 263.397 347.674 263.196L337.627 211.197C336.421 204.96 345.045 202.049 347.867 207.74V207.74C348.24 208.493 348.434 209.322 348.434 210.163V263.124Z" fill="#372898"/>
<path fill-rule="evenodd" clip-rule="evenodd" d="M300.021 145.29L291.727 122.301C287.531 127.156 272.406 134.885 265.869 135.282L268.308 151.335C265.771 158.767 264.893 164.91 265.771 169.766C266.552 174.621 269.284 180.27 274.065 186.612L300.021 145.29Z" fill="white" stroke="#0C2A92" stroke-width="1.75061" stroke-linecap="round"/>
<path fill-rule="evenodd" clip-rule="evenodd" d="M291.563 122.589C285.987 130.919 276.498 136.274 265.737 136.076C249.009 135.779 244.411 125.267 244.705 108.508C244.998 91.7486 249.889 81.9311 266.715 79.0552C282.269 76.3777 294.987 87.6828 296.454 102.657C299.976 104.244 302.421 108.012 302.324 112.375C302.226 118.127 297.726 122.689 292.345 122.589C292.15 122.689 291.856 122.689 291.563 122.589Z" fill="white" stroke="#0C2A92" stroke-width="1.75061" stroke-linecap="round"/>
<path fill-rule="evenodd" clip-rule="evenodd" d="M297.32 102.712C296.628 102.325 295.837 102.035 294.947 101.841C294.354 101.647 293.86 101.551 293.563 101.551C292.97 101.551 292.08 101.551 291.092 101.744C290.993 101.744 290.894 101.841 290.795 101.841C287.335 102.615 284.665 105.229 283.775 108.52C273.889 99.3244 266.474 93.9039 261.53 92.452C254.906 90.5162 250.062 91.3873 246.997 95.1622C251.743 84.3214 259.949 79.1913 271.615 79.8689C279.03 80.256 284.27 82.3855 290.202 87.6124C294.156 91.0969 296.628 96.227 297.716 102.809C297.617 102.906 297.419 102.809 297.32 102.712Z" fill="#0C2A92" stroke="#0C2A92" stroke-width="1.75061" stroke-linecap="round"/>
<path fill-rule="evenodd" clip-rule="evenodd" d="M283.7 75.4255C290.254 70.0361 291.545 62.785 290.453 55.0439C289.857 50.8304 289.559 45.833 286.58 42.3055C278.139 32.3106 263.045 31.0368 253.015 39.3658C247.951 43.4813 246.66 49.1646 246.064 55.1419C245.468 61.1192 245.865 67.4884 250.036 72.4858C258.576 82.4807 273.571 83.8525 283.7 75.4255Z" fill="#0C2A92" stroke="#0C2A92" stroke-width="1.75061" stroke-linecap="round"/>
<path fill-rule="evenodd" clip-rule="evenodd" d="M350.993 281.929L390.083 351.357C395.13 360.353 397.802 370.425 398 380.692H195.126L268.358 293.663L350.993 281.929Z" fill="#0C2A92" stroke="#0C2A92" stroke-width="1.75061" stroke-linecap="round"/>
<path fill-rule="evenodd" clip-rule="evenodd" d="M219.275 339.233L313.147 303.194V143.732C322.436 133.957 337.85 133.463 347.732 142.745C352.771 147.484 355.538 154.1 355.34 161.011L351.981 321.164C351.783 332.321 343.779 341.701 332.91 343.874L174.611 375.47C168.781 376.655 162.753 377.247 156.825 377.247H152.477C148.623 377.247 145.56 374.186 145.56 370.335C145.56 368.854 146.054 367.472 146.844 366.287C163.346 343.676 175.303 332.321 182.516 332.321C191.014 332.321 203.267 334.592 219.275 339.233Z" fill="white" stroke="#0C2A92" stroke-width="1.75061" stroke-linecap="round"/>
<path fill-rule="evenodd" clip-rule="evenodd" d="M13 253.219H166.737L183.599 365.763H29.8615L13 253.219Z" fill="white" stroke="#372898" stroke-width="1.75061" stroke-linecap="round"/>
<path d="M101.757 337.053C106.214 337.053 109.826 333.197 109.826 328.44C109.826 323.683 106.214 319.827 101.757 319.827C97.3012 319.827 93.6886 323.683 93.6886 328.44C93.6886 333.197 97.3012 337.053 101.757 337.053Z" fill="white" stroke="#372898" stroke-width="1.75061" stroke-linecap="round"/>
<path d="M101.758 332.459C104.304 332.459 106.368 330.66 106.368 328.44C106.368 326.22 104.304 324.42 101.758 324.42C99.211 324.42 97.1467 326.22 97.1467 328.44C97.1467 330.66 99.211 332.459 101.758 332.459Z" fill="white" stroke="#372898" stroke-width="1.75061" stroke-linecap="round"/>
</g>
</svg>
