<svg width="629" height="763" viewBox="0 0 629 763" fill="none" xmlns="http://www.w3.org/2000/svg">
<path d="M69.1178 85.2004C85.7514 85.2004 99.2355 71.7241 99.2355 55.1002C99.2355 38.4763 85.7514 25 69.1178 25C52.4842 25 39 38.4763 39 55.1002C39 71.7241 52.4842 85.2004 69.1178 85.2004Z" stroke="#E3EAFE" stroke-width="5.24758"/>
<path d="M541.447 36.88C539.387 31.708 536.984 17.0011 553.907 19.6238C567.813 21.8053 568.082 8.69166 566.366 2" stroke="#E3EAFE" stroke-width="3.57165" stroke-linecap="round"/>
<path d="M620.341 414.677C622.739 414.677 624.682 412.735 624.682 410.339C624.682 407.942 622.739 406 620.341 406C617.944 406 616 407.942 616 410.339C616 412.735 617.944 414.677 620.341 414.677Z" stroke="#E3EAFE" stroke-width="8.2462"/>
<path d="M359.577 335.674C357.713 331.874 355.04 320.869 367.965 321.972C378.609 322.903 378.045 312.951 376.353 308" stroke="#E3EAFE" stroke-width="3.74827" stroke-linecap="round"/>
<path d="M520.934 346.846C531.391 346.846 539.868 338.374 539.868 327.923C539.868 317.472 531.391 309 520.934 309C510.477 309 502 317.472 502 327.923C502 338.374 510.477 346.846 520.934 346.846Z" stroke="#89B922" stroke-width="10"/>
<path d="M187.396 122.785C190.376 122.785 192.791 120.371 192.791 117.393C192.791 114.414 190.376 112 187.396 112C184.416 112 182 114.414 182 117.393C182 120.371 184.416 122.785 187.396 122.785Z" stroke="#E3EAFE" stroke-width="5.24758"/>
<path d="M112.08 169L-25.5591 320.555" stroke="#E3EAFE" stroke-width="3.74827" stroke-linecap="round"/>
<path d="M66.3887 250.256L-48 378.329" stroke="#E3EAFE" stroke-width="3.74827" stroke-linecap="round"/>
<path fill-rule="evenodd" clip-rule="evenodd" d="M98 586.644V456.356C98 441.241 110.244 429 125.364 429H307.636C322.756 429 335 441.241 335 456.356V614H125.364C110.244 614 98 601.759 98 586.644Z" fill="#345DEE"/>
<path fill-rule="evenodd" clip-rule="evenodd" d="M333 613.506V456.682C333 441.645 345.177 429.468 360.214 429.468H541.484C556.52 429.468 568.697 441.645 568.697 456.682V586.292C568.697 601.329 556.52 613.506 541.484 613.506H333Z" fill="#345DEE"/>
<path fill-rule="evenodd" clip-rule="evenodd" d="M98.5469 636.338V587.907C98.5469 570.057 112.984 555.62 130.834 555.62H301.957C319.807 555.62 334.244 570.057 334.244 587.907V636.338C334.244 654.188 319.807 668.625 301.957 668.625H130.834C112.984 668.625 98.5469 654.142 98.5469 636.338Z" fill="white" stroke="#0C2A92" stroke-width="2" stroke-linecap="round"/>
<path fill-rule="evenodd" clip-rule="evenodd" d="M333.783 636.338V587.907C333.783 570.057 348.22 555.62 366.07 555.62H537.193C555.043 555.62 569.48 570.057 569.48 587.907V636.338C569.48 654.188 555.043 668.625 537.193 668.625H366.07C348.22 668.625 333.783 654.142 333.783 636.338Z" fill="white" stroke="#0C2A92" stroke-width="2" stroke-linecap="round"/>
<path fill-rule="evenodd" clip-rule="evenodd" d="M75.1725 495.987H111.611C117.746 495.987 122.681 500.922 122.681 507.057V750.134C122.681 756.269 117.746 761.204 111.611 761.204H75.1725C69.0379 761.204 64.1025 756.269 64.1025 750.134V507.057C64.1025 500.922 69.084 495.987 75.1725 495.987Z" fill="white" stroke="#0C2A92" stroke-width="2" stroke-linecap="round"/>
<path fill-rule="evenodd" clip-rule="evenodd" d="M551.492 495.658H587.93C594.065 495.658 599 500.593 599 506.728V749.805C599 755.939 594.065 760.875 587.93 760.875H551.492C545.357 760.875 540.422 755.939 540.422 749.805V506.728C540.422 500.593 545.403 495.658 551.492 495.658Z" fill="white" stroke="#0C2A92" stroke-width="2" stroke-linecap="round"/>
<path fill-rule="evenodd" clip-rule="evenodd" d="M279.679 384.036L285.536 375.733C286.182 374.811 287.428 374.58 288.35 375.226C289.319 375.918 289.642 377.209 289.088 378.224L284.337 386.942L288.719 389.063C291.487 390.401 292.594 393.722 291.256 396.443C291.025 396.859 290.795 397.274 290.472 397.643L278.018 412.08C277.972 412.126 277.972 412.126 277.926 412.172L274.743 414.893L266.625 406.545C266.349 406.222 266.302 405.761 266.487 405.438L279.632 384.082C279.632 384.036 279.679 384.036 279.679 384.036Z" fill="white" stroke="#0C2A92" stroke-width="2" stroke-linecap="round"/>
<path fill-rule="evenodd" clip-rule="evenodd" d="M328.756 468.167L330.186 464.385C331.246 461.525 334.429 460.049 337.289 461.11C337.473 461.156 337.612 461.248 337.796 461.341L348.543 466.599C346.329 462.54 345.13 459.911 344.945 458.619C344.761 457.374 345.545 456.82 347.252 457.005L367.593 474.348L363.026 487.217C362.842 487.678 362.334 487.955 361.827 487.77H361.781L332.123 475.778C329.125 474.625 327.649 471.211 328.756 468.167Z" fill="white" stroke="#0C2A92" stroke-width="2" stroke-linecap="round"/>
<path fill-rule="evenodd" clip-rule="evenodd" d="M417.509 579.046L488.725 707.134L463.172 727.198L364.05 574.433C358.377 565.67 360.868 553.954 369.631 548.281C370.415 547.773 371.246 547.312 372.122 546.943L447.49 512.765H473.089L497.766 530.753L417.509 579.046Z" fill="white" stroke="#372898" stroke-width="0.922494" stroke-linecap="round"/>
<mask id="mask0" mask-type="alpha" maskUnits="userSpaceOnUse" x="361" y="513" width="137" height="215">
<path fill-rule="evenodd" clip-rule="evenodd" d="M417.5 579.281L488.717 707.37L463.163 727.434L364.041 574.669C358.368 565.905 360.859 554.189 369.623 548.516C370.407 548.009 371.237 547.547 372.113 547.178L447.481 513H473.08L497.757 530.989L417.5 579.281Z" fill="#0C2A92"/>
</mask>
<g mask="url(#mask0)">
<path fill-rule="evenodd" clip-rule="evenodd" d="M399.474 529.923L350.352 551.74L362.944 586.564L409.853 650.447L422.214 566.085L437.297 523.097L399.474 529.923Z" fill="#0C2A92" stroke="#0C2A92" stroke-width="0.461247"/>
</g>
<path fill-rule="evenodd" clip-rule="evenodd" d="M451.632 519.181L446.143 522.779L378.293 552.944C368.93 557.096 363.118 566.69 363.856 576.975L374.88 737.812H404.4L404.446 585.508L480.598 560.647C493.328 556.496 501.815 544.55 501.585 531.174L501.354 519.089L451.632 519.181Z" fill="white" stroke="#0C2A92" stroke-width="2" stroke-linecap="round"/>
<path fill-rule="evenodd" clip-rule="evenodd" d="M444 425.5L424.412 492.413L372.627 473.642L364.567 490.034L419.162 521.036C425.349 524.554 433.228 522.382 436.79 516.181C437.13 515.586 437.412 514.96 437.679 514.292L468.177 432.023L444 425.5Z" fill="#0C2A92"/>
<path fill-rule="evenodd" clip-rule="evenodd" d="M497.824 419.896L478.454 419.307L454.428 419.57C448.123 419.658 443.051 424.813 443.094 431.161C443.085 431.425 443.12 431.691 443.11 431.955L449 520.5L501.5 520L502.096 502.012L505.931 428.772C506.181 424.154 502.616 420.239 497.997 419.99C497.956 419.9 497.912 419.899 497.824 419.896Z" fill="white" stroke="#0C2A92" stroke-width="2" stroke-linecap="round"/>
<path fill-rule="evenodd" clip-rule="evenodd" d="M447.803 528.452L441.161 527.806C439.87 527.668 438.901 526.515 439.04 525.223C439.086 524.901 439.178 524.624 439.316 524.347C443.744 519.412 446.143 517.659 448.126 515.998C448.264 515.906 448.403 515.768 448.541 515.676C452.969 511.893 458.274 509.172 463.947 507.788L473.31 505.482L491.806 503.775L491.299 510.832L479.629 521.672L447.849 526.653L448.218 526.745C448.68 526.884 448.956 527.391 448.818 527.852C448.633 528.221 448.264 528.498 447.803 528.452Z" fill="white" stroke="#0C2A92" stroke-width="2"/>
<path fill-rule="evenodd" clip-rule="evenodd" d="M463.947 426.839L450.11 437.217L455.875 420.382L463.947 426.839Z" fill="white" stroke="#0C2A92" stroke-width="2" stroke-linecap="round"/>
<path fill-rule="evenodd" clip-rule="evenodd" d="M493.236 452.208L513.992 485.418L471.327 503.637L478.476 521.395L537.377 503.545C544.065 501.054 547.479 493.628 545.034 486.94C544.85 486.386 544.619 485.879 544.342 485.372L513.992 432.374C508.642 423.057 498.448 417.707 487.747 418.537L469.297 420.336" fill="white"/>
<path d="M493.236 452.208L513.992 485.418L471.327 503.637L478.476 521.395L537.377 503.545C544.066 501.054 547.479 493.628 545.034 486.94C544.85 486.386 544.619 485.879 544.342 485.372L513.992 432.374C508.642 423.057 498.448 417.707 487.747 418.537L469.297 420.336" stroke="#0C2A92" stroke-width="2" stroke-linecap="round" stroke-linejoin="round"/>
<path fill-rule="evenodd" clip-rule="evenodd" d="M464.408 426.839L478.246 437.217L473.403 419.92L464.408 426.839Z" fill="white" stroke="#0C2A92" stroke-width="2" stroke-linecap="round"/>
<path fill-rule="evenodd" clip-rule="evenodd" d="M455.789 420.471L455.743 410.738L455.789 420.471ZM472.486 405.526L473.362 420.471L472.486 405.526ZM473.316 418.626C473.547 423.469 467.597 426.467 464.137 426.467C460.678 426.467 455.789 424.161 455.789 419.548L455.881 412.629L472.486 405.019L473.316 418.626Z" fill="white" stroke="#0C2A92" stroke-width="2" stroke-linecap="round"/>
<path d="M469.563 408.487L456.371 418.684L455.239 416.461L455.948 411.711L469.563 408.487Z" fill="#0C2A92" stroke="#0C2A92" stroke-width="0.461247"/>
<path fill-rule="evenodd" clip-rule="evenodd" d="M472.301 405.526C469.303 409.631 464.091 412.629 459.202 412.629C451.683 412.629 451.637 407.14 451.637 399.714C451.637 392.288 453.759 387.906 461.231 386.522C468.196 385.231 473.916 390.12 474.746 396.716C476.36 397.408 477.467 399.068 477.467 400.959C477.467 403.496 475.53 405.572 473.085 405.572C472.855 405.618 472.578 405.572 472.301 405.526Z" fill="white" stroke="#0C2A92" stroke-width="2" stroke-linecap="round"/>
<path d="M472.116 396.636C471.615 396.718 471.14 396.864 470.72 397.076L469.059 392.441L469.006 392.292L468.848 392.288L453.522 391.885C454.222 390.968 454.771 390.317 455.206 389.922L455.206 389.922L455.207 389.92C457.373 387.914 459.194 387.083 460.623 386.771C461.933 386.484 462.93 386.628 463.605 386.726C463.667 386.735 463.726 386.743 463.783 386.751L463.783 386.751L463.786 386.751C465.981 387.026 467.753 387.527 469.2 388.251C470.747 389.024 471.769 389.877 472.338 390.753C472.923 391.652 473.648 393.099 474.515 395.103V396.868C474.064 396.739 473.731 396.667 473.492 396.627C473.204 396.579 472.84 396.578 472.405 396.617C472.369 396.6 472.326 396.589 472.278 396.589C472.214 396.589 472.16 396.609 472.116 396.636Z" fill="#0C2A92" stroke="#0C2A92" stroke-width="0.461247"/>
<path fill-rule="evenodd" clip-rule="evenodd" d="M170.374 489.591L163.041 530.674C161.166 541.329 167.143 551.773 177.272 555.537L217.165 565.45C225.739 564.112 233.212 560.498 239.54 554.616C245.868 548.734 252.486 539.272 259.35 526.238L214.144 501.804L205.965 483.659L170.374 489.591Z" fill="#89B922"/>
<path fill-rule="evenodd" clip-rule="evenodd" d="M224.283 509.31C222.576 511.34 220.039 512.631 217.18 512.631C212.106 512.631 207.955 508.48 207.955 503.406C207.955 498.333 212.106 494.181 217.18 494.181C218.609 494.181 219.993 494.504 221.192 495.104L219.486 487.263C224.698 487.862 228.711 488.185 231.478 488.185C234.246 488.185 238.259 487.862 243.471 487.263L236.552 519.089H226.404L224.283 509.31ZM217.18 508.941C220.224 508.941 222.714 506.451 222.714 503.406C222.714 500.362 220.224 497.871 217.18 497.871C214.135 497.871 211.645 500.362 211.645 503.406C211.645 506.451 214.135 508.941 217.18 508.941Z" fill="white" stroke="#0C2A92" stroke-width="2" stroke-linecap="round"/>
<path fill-rule="evenodd" clip-rule="evenodd" d="M180.511 495.104L193.887 497.225C196.47 497.64 199.099 497.456 201.59 496.626L206.433 495.058C208.37 494.458 210.399 494.089 212.429 494.089H212.613C213.398 494.089 213.997 494.688 213.997 495.473C213.997 495.795 213.905 496.118 213.72 496.349L211.276 499.485L222.761 511.247C222.207 512.447 221.146 513.554 219.532 514.476C217.964 515.398 214.781 515.398 209.938 514.568C209.615 514.522 209.246 514.43 208.923 514.338L194.994 510.325C194.486 510.186 193.933 510.048 193.379 509.956L175.76 507.327L180.511 495.104Z" fill="white" stroke="#0C2A92" stroke-width="2" stroke-linecap="round"/>
<path d="M172.524 410.302C172.092 409.881 171.833 409.529 171.717 409.246C171.359 408.316 171.372 407.302 171.532 406.427C171.694 405.549 171.998 404.835 172.196 404.516L172.197 404.514C172.684 403.708 173.342 403.2 174.172 402.967C174.988 402.738 175.99 402.771 177.188 403.083L183.861 415.643L184.667 426.631L171.238 428.154L172.685 412.145L174.166 412.145L174.897 412.145L174.298 411.725C173.543 411.196 172.954 410.722 172.524 410.302Z" fill="white" stroke="#0C2A92" stroke-width="0.461247"/>
<path fill-rule="evenodd" clip-rule="evenodd" d="M184.947 427.251L184.122 415.993L184.947 427.251ZM169.495 409.157L170.991 428.695L169.495 409.157Z" fill="white"/>
<path d="M169.495 409.157L170.991 428.695M184.947 427.251L184.122 415.993L184.947 427.251Z" stroke="#0C2A92" stroke-width="2" stroke-linecap="round"/>
<path fill-rule="evenodd" clip-rule="evenodd" d="M175.769 413.153C174.08 412.683 172.668 411.219 172.199 409.29C171.571 406.545 173.151 403.795 175.714 403.203C176.657 402.972 177.57 403.077 178.427 403.38L175.769 413.153ZM171.045 411.816L168.876 404.767C167.107 397.358 172.467 391.57 179.877 391.257C187.893 390.921 190.424 394.752 193.658 402.205C196.892 409.658 196.415 414.215 188.726 415.992C187.105 416.354 184.969 416.487 182.31 416.346" fill="white"/>
<path d="M171.045 411.816L168.876 404.767C167.107 397.358 172.467 391.57 179.877 391.257C187.893 390.921 190.424 394.752 193.658 402.205C196.892 409.658 196.415 414.215 188.726 415.992C187.105 416.354 184.969 416.487 182.31 416.346M175.769 413.153C174.08 412.683 172.668 411.219 172.199 409.29C171.571 406.545 173.151 403.795 175.714 403.203C176.657 402.972 177.57 403.077 178.427 403.38L175.769 413.153Z" stroke="#0C2A92" stroke-width="2" stroke-linecap="round"/>
<path d="M184.598 426.264L182.209 416.711L184.984 416.802L184.689 426.219L184.598 426.264Z" fill="#0C2A92" stroke="#0C2A92" stroke-width="0.461247"/>
<path d="M178.914 403.192L178.914 403.192L178.908 403.193C178.847 403.205 178.744 403.191 178.569 403.134C178.467 403.101 178.364 403.061 178.248 403.017C178.165 402.985 178.076 402.95 177.976 402.914C177.525 402.75 176.953 402.586 176.324 402.708C175.837 402.803 175.115 403.092 174.214 403.55C173.765 403.779 173.408 403.967 173.16 404.112C173.036 404.184 172.933 404.248 172.858 404.303C172.821 404.33 172.785 404.359 172.755 404.389C172.737 404.407 172.705 404.44 172.682 404.487C171.261 406.61 171.849 408.612 172.281 410.083C172.308 410.177 172.335 410.268 172.36 410.356C172.478 410.81 172.809 411.158 173.167 411.44C173.409 411.63 173.689 411.809 173.948 411.975C174.068 412.052 174.184 412.126 174.29 412.198L174.29 412.198L174.3 412.204C174.818 412.515 175.363 412.737 175.933 412.867L177.33 416.087C177.436 416.393 177.545 416.729 177.603 417.026C178.063 419.391 176.503 421.704 174.138 422.163L166.486 423.651L166.486 423.651L166.473 423.654C165.725 423.843 164.909 423.74 164.179 423.435C162.192 422.577 161.258 420.273 162.114 418.29L162.114 418.289C164.989 411.578 166.711 407.097 167.353 404.794C167.671 403.728 167.842 402.645 167.912 401.538C168.227 397.471 170.703 393.859 174.417 392.124L174.417 392.124L174.421 392.122C174.888 391.892 175.273 391.724 175.663 391.554L175.663 391.554L175.667 391.552C177.083 390.903 179.734 389.825 183.668 388.309C185.539 387.587 187.667 388.202 188.826 389.804C189.994 391.453 189.884 393.655 188.524 395.119L188.524 395.119L188.522 395.122C186.205 397.683 184.233 399.633 182.617 400.98C181.809 401.653 181.094 402.172 180.472 402.541C179.847 402.911 179.329 403.122 178.914 403.192Z" fill="#0C2A92" stroke="#0C2A92" stroke-width="0.461247"/>
<path fill-rule="evenodd" clip-rule="evenodd" d="M199.56 428.915L237.844 441.922L267.271 403.869L279.633 415.308L251.128 460.095C248.037 464.984 242.041 467.198 236.506 465.538L193.564 452.623C186.922 450.64 183.048 443.721 184.754 437.033C186.322 430.898 192.595 427.162 198.73 428.73C199.007 428.73 199.283 428.823 199.56 428.915Z" fill="white" stroke="#0C2A92" stroke-width="2" stroke-linecap="round"/>
<path fill-rule="evenodd" clip-rule="evenodd" d="M207.955 431.682L217.18 459.588L204.265 455.436L198.96 428.684L207.955 431.682Z" fill="#0C2A92"/>
<path fill-rule="evenodd" clip-rule="evenodd" d="M170.64 428.73L189.366 426.101C197.761 425.317 205.233 431.452 206.017 439.846C206.064 440.262 206.064 440.63 206.064 441.046L206.802 484.726L171.332 491.183L194.578 495.104L189.966 510.094L129.773 504.79C122.67 504.144 117.412 497.917 118.058 490.814C118.196 489.246 118.611 487.724 119.303 486.294L138.629 446.396C144.487 434.219 157.448 427.254 170.64 428.73ZM170.04 490.999L162.383 456.313L142.458 486.34L170.04 490.999Z" fill="white" stroke="#0C2A92" stroke-width="2" stroke-linecap="round"/>
<path d="M472.25 522.866H400.756V529.785H472.25V522.866Z" fill="white" stroke="#0C2A92" stroke-width="2" stroke-linecap="round"/>
<path fill-rule="evenodd" clip-rule="evenodd" d="M375.849 476.741H447.342L455.183 529.785H383.69L375.849 476.741Z" fill="white" stroke="#0C2A92" stroke-width="2" stroke-linecap="round"/>
<path fill-rule="evenodd" clip-rule="evenodd" d="M382.767 522.866H454.26L455.183 529.785H383.69L382.767 522.866Z" fill="white" stroke="#0C2A92" stroke-width="2" stroke-linecap="round"/>
<path d="M413.44 503.494C414.586 503.494 415.516 502.564 415.516 501.418C415.516 500.272 414.586 499.342 413.44 499.342C412.294 499.342 411.364 500.272 411.364 501.418C411.364 502.564 412.294 503.494 413.44 503.494Z" fill="white" stroke="#0C2A92" stroke-width="2" stroke-linecap="round"/>
<path fill-rule="evenodd" clip-rule="evenodd" d="M219.763 705.315C220.178 722.007 220.409 730.353 220.409 730.353C220.409 730.353 223.914 733.151 230.925 738.747C239.274 751.338 243.471 757.658 243.471 757.658C243.471 757.658 248.776 757.658 259.384 757.658L250.344 749.264L237.475 720.27L236.506 705.315H236.553C234.108 595.468 232.863 540.568 232.863 540.568C232.863 540.568 231.479 522.719 216.027 524.166C205.741 525.131 200.022 532.029 198.961 544.91L219.763 705.315Z" fill="white" stroke="#0C2A92" stroke-width="2" stroke-linecap="round"/>
<path fill-rule="evenodd" clip-rule="evenodd" d="M192.365 693.062L184.385 711.732L177.974 721.284L189.551 756.597L196.747 762H210.722L196.747 749.554L199.929 721.284L205.925 704.254L205.879 704.206L270.223 552.87C272.668 539.507 269.9 531.016 261.921 527.35C255.187 524.311 248.821 526.771 242.871 534.779C240.888 537.433 239.366 540.375 238.397 543.608L192.365 693.062Z" fill="white" stroke="#0C2A92" stroke-width="2" stroke-linecap="round"/>
<path d="M231.478 488.185C238.356 488.185 243.932 487.565 243.932 486.801C243.932 486.037 238.356 485.417 231.478 485.417C224.6 485.417 219.025 486.037 219.025 486.801C219.025 487.565 224.6 488.185 231.478 488.185Z" fill="#0C2A92"/>
<path d="M493 68.2461H275V238.246H493V68.2461Z" fill="white" stroke="#0C2A92" stroke-width="2" stroke-linecap="round"/>
<path fill-rule="evenodd" clip-rule="evenodd" d="M287.75 180.303H294.439H287.75Z" fill="white"/>
<path d="M287.75 180.303H294.439" stroke="#0C2A92" stroke-width="2" stroke-linecap="round"/>
<path fill-rule="evenodd" clip-rule="evenodd" d="M410.442 100.303H435.165H410.442Z" fill="#0C2A92"/>
<path d="M410.442 100.303H435.165" stroke="#372898" stroke-width="2" stroke-linecap="round"/>
<path fill-rule="evenodd" clip-rule="evenodd" d="M438.486 100.303H451.632H438.486Z" fill="#0C2A92"/>
<path d="M438.486 100.303H451.632" stroke="#372898" stroke-width="2" stroke-linecap="round"/>
<path fill-rule="evenodd" clip-rule="evenodd" d="M455.552 100.303H479.629H455.552Z" fill="#0C2A92"/>
<path d="M455.552 100.303H479.629" stroke="#372898" stroke-width="2" stroke-linecap="round"/>
<path fill-rule="evenodd" clip-rule="evenodd" d="M423.818 148.503C412.103 148.503 402.278 158.051 402.278 169.859C402.278 181.667 411.78 191.214 423.495 191.214C423.588 191.214 423.726 191.214 423.818 191.214V211.694C423.772 211.694 423.68 211.694 423.634 211.694C400.064 211.694 380.922 192.506 380.922 168.798C380.922 145.09 400.064 125.902 423.634 125.902C423.68 125.902 423.772 125.902 423.818 125.902V148.503Z" fill="white" stroke="#0C2A92" stroke-width="2" stroke-linecap="round"/>
<path fill-rule="evenodd" clip-rule="evenodd" d="M423.819 191.402C435.35 191.171 444.621 181.67 444.621 170H466.254C465.562 193.293 446.927 211.973 424.003 211.973C423.957 211.973 423.865 211.973 423.819 211.973V191.402Z" fill="white" stroke="#0C2A92" stroke-width="2" stroke-linecap="round"/>
<path fill-rule="evenodd" clip-rule="evenodd" d="M449.372 163.448C449.372 163.355 449.372 163.217 449.372 163.125C449.372 152.101 440.885 143.014 429.999 142V120.183C453.108 120.874 471.604 139.924 471.604 163.263C471.604 163.309 471.604 163.401 471.604 163.448H449.372Z" fill="#345DEE"/>
<path fill-rule="evenodd" clip-rule="evenodd" d="M186.276 200.828H258.692C278.064 200.828 293.747 216.511 293.747 235.883V311.989C293.747 331.361 278.064 347.043 258.692 347.043H186.276C166.904 347.043 151.221 331.361 151.221 311.989V235.883C151.221 216.511 166.95 200.828 186.276 200.828Z" fill="#CAD9FF"/>
<path fill-rule="evenodd" clip-rule="evenodd" d="M463.947 426.839L464.639 443.214L463.947 426.839Z" fill="white"/>
<path d="M463.947 426.839L464.639 443.214" stroke="#0C2A92" stroke-width="2" stroke-linecap="round"/>
<path fill-rule="evenodd" clip-rule="evenodd" d="M469.713 503.868L478.246 522.779L485.165 521.395C483.274 518.028 481.429 514.707 479.63 511.478C477.831 508.25 476.216 504.191 474.787 499.255L469.713 503.868Z" fill="white" stroke="#0C2A92" stroke-width="2" stroke-linecap="round"/>
<path fill-rule="evenodd" clip-rule="evenodd" d="M365.563 491.552L374.557 472.872L369.068 468.444C367.685 472.042 366.347 475.593 365.009 479.053C363.718 482.512 361.642 486.386 358.736 490.63L365.563 491.552Z" fill="#0C2A92"/>
<path fill-rule="evenodd" clip-rule="evenodd" d="M253.203 282.239H262.612L260.767 296.768H255.186C253.941 304.84 248.96 311.712 242.087 315.495C242.087 315.633 242.087 315.771 242.087 315.91V321.906C242.087 324.443 240.011 326.518 237.474 326.518C234.938 326.518 232.862 324.443 232.862 321.906V318.493C231.801 318.631 230.74 318.677 229.633 318.677H212.567C211.46 318.677 210.399 318.631 209.338 318.493V321.906C209.338 324.443 207.263 326.518 204.726 326.518C202.189 326.518 200.113 324.443 200.113 321.906V315.91C200.113 315.771 200.113 315.633 200.113 315.495C192.134 311.113 186.737 302.626 186.737 292.847C186.737 278.595 198.315 267.017 212.567 267.017H226.405L242.087 258.484L244.624 271.814C248.36 274.444 251.312 278.041 253.203 282.239Z" fill="white" stroke="#0C2A92" stroke-width="2" stroke-linecap="round"/>
<path d="M221.331 247V265.911L215.565 260.837" stroke="#0C2A92" stroke-width="2" stroke-linecap="round"/>
<path fill-rule="evenodd" clip-rule="evenodd" d="M221.331 265.911L226.405 261.068L221.331 265.911Z" fill="white"/>
<path d="M221.331 265.911L226.405 261.068" stroke="#0C2A92" stroke-width="2" stroke-linecap="round"/>
<path d="M221.561 245.904C230.095 245.904 237.013 238.986 237.013 230.452C237.013 221.918 230.095 215 221.561 215C213.028 215 206.11 221.918 206.11 230.452C206.11 238.986 213.028 245.904 221.561 245.904Z" fill="white" stroke="#0C2A92" stroke-width="2" stroke-linecap="round"/>
<path d="M242.087 283.853C243.106 283.853 243.932 283.027 243.932 282.008C243.932 280.989 243.106 280.163 242.087 280.163C241.068 280.163 240.242 280.989 240.242 282.008C240.242 283.027 241.068 283.853 242.087 283.853Z" fill="white" stroke="#0C2A92" stroke-width="2" stroke-linecap="round"/>
<path fill-rule="evenodd" clip-rule="evenodd" d="M216.257 270.015H226.174H216.257Z" fill="white"/>
<path d="M216.257 270.015H226.174" stroke="#0C2A92" stroke-width="2" stroke-linecap="round"/>
<path fill-rule="evenodd" clip-rule="evenodd" d="M312.658 124.979H348.174V136.972V159.112H312.658V124.979Z" fill="white" stroke="#0C2A92" stroke-width="2" stroke-linecap="round"/>
<path fill-rule="evenodd" clip-rule="evenodd" d="M312.658 174.794H348.174V186.786V208.926H312.658V174.794Z" fill="white" stroke="#0C2A92" stroke-width="2" stroke-linecap="round"/>
<path fill-rule="evenodd" clip-rule="evenodd" d="M319.577 188.401H342.639H319.577Z" fill="white"/>
<path d="M319.577 188.401H342.639" stroke="#0C2A92" stroke-width="2" stroke-linecap="round"/>
<path fill-rule="evenodd" clip-rule="evenodd" d="M319.577 195.781H342.639H319.577Z" fill="white"/>
<path d="M319.577 195.781H342.639" stroke="#0C2A92" stroke-width="2" stroke-linecap="round"/>
<path fill-rule="evenodd" clip-rule="evenodd" d="M319.115 152.654L341.717 131.437L319.115 152.654Z" fill="white"/>
<path d="M319.115 152.654L341.717 131.437" stroke="#0C2A92" stroke-width="2" stroke-linecap="round"/>
<path d="M321.422 136.049C322.695 136.049 323.728 135.017 323.728 133.743C323.728 132.47 322.695 131.437 321.422 131.437C320.148 131.437 319.115 132.47 319.115 133.743C319.115 135.017 320.148 136.049 321.422 136.049Z" fill="white" stroke="#0C2A92" stroke-width="2" stroke-linecap="round"/>
<path d="M339.41 152.654C340.684 152.654 341.716 151.622 341.716 150.348C341.716 149.074 340.684 148.042 339.41 148.042C338.136 148.042 337.104 149.074 337.104 150.348C337.104 151.622 338.136 152.654 339.41 152.654Z" fill="white" stroke="#0C2A92" stroke-width="2" stroke-linecap="round"/>
<path fill-rule="evenodd" clip-rule="evenodd" d="M348.173 142.046L380.921 158.651L348.173 142.046Z" fill="white"/>
<path d="M348.173 142.046L380.921 158.651" stroke="#0C2A92" stroke-width="2" stroke-linecap="round"/>
<path fill-rule="evenodd" clip-rule="evenodd" d="M348.173 191.86L380.921 174.794L348.173 191.86Z" fill="white"/>
<path d="M348.173 191.86L380.921 174.794" stroke="#0C2A92" stroke-width="2" stroke-linecap="round"/>
<rect x="274" y="67" width="220" height="17" fill="#89B922"/>
<path fill-rule="evenodd" clip-rule="evenodd" d="M288.096 78C286.931 78 286 77.12 286 76C286 74.88 286.931 74 288.096 74C289.26 74 290.191 74.88 290.191 76C290.191 77.12 289.26 78 288.096 78ZM295.267 78C294.103 78 293.172 77.12 293.172 76C293.172 74.88 294.103 74 295.267 74C296.431 74 297.363 74.88 297.363 76C297.363 77.12 296.431 78 295.267 78ZM302.904 78C301.74 78 300.809 77.12 300.809 76C300.809 74.88 301.74 74 302.904 74C304.069 74 305 74.88 305 76C305 77.12 304.069 78 302.904 78Z" fill="white"/>
<path fill-rule="evenodd" clip-rule="evenodd" d="M402.746 730.428L400.67 745.188L382.22 747.033V730.428" fill="white"/>
<path d="M402.746 730.428L400.67 745.188L382.22 747.033V730.428" stroke="#372898" stroke-width="0.922494" stroke-linecap="round"/>
<path fill-rule="evenodd" clip-rule="evenodd" d="M401.547 740.575L404.361 756.073V760.87H389.785H377.885H355.284C352.101 760.039 350.395 758.932 350.164 757.549C349.749 755.473 348.827 751.783 365.8 748.601C369.398 747.909 370.459 746.156 374.057 743.85C375.118 743.158 377.701 742.051 381.713 740.575C383.097 742.374 386.095 743.481 390.754 743.85C395.32 744.219 398.964 743.112 401.547 740.575ZM488.169 716.267L499.193 727.568L501.868 731.534L489.784 739.698L479.913 746.387L461.186 759.025C458.096 760.086 456.067 760.132 455.052 759.163C453.576 757.687 450.716 755.104 462.985 743.019C465.568 740.436 465.476 738.407 467.183 734.44C467.69 733.287 469.212 730.935 471.703 727.475C473.871 728.213 476.961 727.429 481.02 725.123C485.033 722.771 487.431 719.819 488.169 716.267Z" fill="#0C2A92"/>
<path fill-rule="evenodd" clip-rule="evenodd" d="M483.461 707.182L489.994 720.579L475.73 732.426L466.444 718.66" fill="white"/>
<path d="M483.461 707.182L489.994 720.579L475.73 732.426L466.444 718.66" stroke="#372898" stroke-width="0.922494" stroke-linecap="round"/>
<path fill-rule="evenodd" clip-rule="evenodd" d="M183 712.5L196.905 750.9C205.07 758.28 209.359 761.97 209.82 761.97C210.282 761.97 205.577 761.97 195.752 761.97L188.603 756.896L177.072 731.066L173.612 737.985L170.522 735.817L169 734.756L176.5 721.5L183 712.5ZM219.276 725.762L238.879 748.594L249.488 749.747L262 758.5C262.092 758.869 262.092 760.085 262 760.5C261.769 762.022 257.559 761.555 256.037 761.278L234.912 757.818L220.291 740.245L219.138 749.239L213.695 747.763L215.955 735.171L219.276 725.762Z" fill="#0C2A92"/>
</svg>
