<svg width="347" height="448" viewBox="0 0 347 448" fill="none" xmlns="http://www.w3.org/2000/svg">
<path fill-rule="evenodd" clip-rule="evenodd" d="M93.2354 445.446C94.9661 399.459 95.8067 361.927 95.8067 332.851C95.8067 331.516 94.4222 324.049 90.219 316.236C88.4883 313.022 78.5986 301.006 76.1262 296.704C72.9614 291.166 69.2528 284.589 65.0002 276.925C66.4836 272.623 68.1154 271.139 69.8462 272.474C71.5769 273.809 80.1315 277.914 95.4112 284.837C99.9604 286.369 104.806 288.397 109.999 290.968C115.191 293.539 118.553 296.605 120.086 300.314L123.3 324.742L130.569 358.317C131.707 363.658 133.783 368.8 136.602 373.498L166.568 422.897C169.733 428.089 174.331 432.293 179.771 434.963L203.605 446.583L93.2354 445.446Z" fill="white" stroke="#0C2A92" stroke-width="2" stroke-linecap="round"/>
<path fill-rule="evenodd" clip-rule="evenodd" d="M114.201 332.307C112.421 332.703 110.196 332.703 107.526 332.307C104.855 331.911 99.3899 330.934 94 329.5V337C99.3405 338.434 104.806 339.873 107.526 340.219C110.245 340.565 113.163 340.565 116.179 340.219L114.201 332.307Z" fill="#89B922"/>
<path d="M93.6799 294.726C92.7241 294.726 91.9492 293.841 91.9492 292.748C91.9492 291.656 92.7241 290.771 93.6799 290.771C94.6358 290.771 95.4106 291.656 95.4106 292.748C95.4106 293.841 94.6358 294.726 93.6799 294.726Z" fill="white" stroke="#0C2A92" stroke-width="2" stroke-linecap="round"/>
<path fill-rule="evenodd" clip-rule="evenodd" d="M121.025 301.995L130.569 331.813C133.091 339.626 132.893 348.081 130.025 355.746L126.959 363.954C125.476 367.861 121.124 369.888 117.218 368.405C115.091 367.614 113.46 365.932 112.718 363.806L108.416 351.493C106.685 346.499 106.042 341.158 106.586 335.867L110.987 291.265C112.965 292.254 114.696 293.391 116.179 294.726C116.97 295.418 117.712 296.21 118.404 297.1C119.591 298.583 120.481 300.215 121.025 301.995Z" fill="white" stroke="#0C2A92" stroke-width="2" stroke-linecap="round"/>
<path fill-rule="evenodd" clip-rule="evenodd" d="M113.163 445.05L109.998 393.475H115.289L109.998 386.651H118.652L108.762 376.811" fill="white"/>
<path d="M113.163 445.05L109.998 393.475H115.289L109.998 386.651H118.652L108.762 376.811" stroke="#0C2A92" stroke-width="2" stroke-linecap="round"/>
<path d="M93.2574 218.502C99.4747 218.502 104.515 213.464 104.515 207.251C104.515 201.037 99.4747 196 93.2574 196C87.0401 196 82 201.037 82 207.251C82 213.464 87.0401 218.502 93.2574 218.502Z" stroke="#E3EAFE" stroke-width="10.4952"/>
<path d="M176.257 320.787C174.294 315.394 172.283 300.05 189.819 303.09C204.216 305.59 204.952 291.986 203.382 285" stroke="#E3EAFE" stroke-width="3.57165" stroke-linecap="round"/>
<path d="M2.7237 373.428C1.69361 370.854 0.491844 363.501 8.95328 364.8C15.8941 365.878 16.0413 359.334 15.1829 356" stroke="#89B922" stroke-width="3.57165" stroke-linecap="round"/>
<path d="M344.395 2L319.698 28.546L295 55.0921" stroke="#E3EAFE" stroke-width="3.74827" stroke-linecap="round"/>
<path fill-rule="evenodd" clip-rule="evenodd" d="M229.493 443.819L248.135 297.204H322.902L341.247 445.055" fill="white"/>
<path d="M229.493 443.819L248.135 297.204H322.902L341.247 445.055" stroke="#0C2A92" stroke-width="2" stroke-linecap="round"/>
<path fill-rule="evenodd" clip-rule="evenodd" d="M273.898 260.612C273.898 260.859 273.898 261.106 273.898 261.353C273.898 267.584 278.942 272.628 285.172 272.628C291.403 272.628 296.446 267.584 296.446 261.353C296.446 261.106 296.446 260.859 296.446 260.612V211.163H319.588V260.612C319.588 260.859 319.588 261.106 319.588 261.353C319.588 280.342 304.21 295.72 285.222 295.72C266.233 295.72 250.855 280.342 250.855 261.353C250.855 261.106 250.855 260.859 250.855 260.612V211.163H273.997V260.612H273.898Z" fill="#CAD9FF"/>
<mask id="mask0" mask-type="alpha" maskUnits="userSpaceOnUse" x="250" y="211" width="70" height="85">
<path fill-rule="evenodd" clip-rule="evenodd" d="M273.898 260.612C273.898 260.859 273.898 261.106 273.898 261.353C273.898 267.584 278.942 272.628 285.172 272.628C291.403 272.628 296.446 267.584 296.446 261.353C296.446 261.106 296.446 260.859 296.446 260.612V211.163H319.588V260.612C319.588 260.859 319.588 261.106 319.588 261.353C319.588 280.342 304.21 295.72 285.222 295.72C266.233 295.72 250.855 280.342 250.855 261.353C250.855 261.106 250.855 260.859 250.855 260.612V211.163H273.997V260.612H273.898Z" fill="white"/>
</mask>
<g mask="url(#mask0)">
<path d="M286.545 250.373C305.892 271.9 320.444 281.715 330.104 279.838C344.666 277.007 341.137 258.853 326.575 261.684C312.013 264.514 264.753 268.613 265.035 284.577C265.239 295.217 273.759 301.469 290.681 303.268L293.482 305.494" stroke="white" stroke-width="0.988975"/>
<path d="M287.047 250.88C267.168 228.952 252.424 218.922 242.706 220.761C228.144 223.592 231.75 241.882 246.263 239.061C260.825 236.23 308.105 232.228 307.794 216.119C307.571 205.382 298.993 199.09 282.11 197.234" stroke="white" stroke-width="0.988975"/>
</g>
<path d="M260.398 211.163L244.327 67.2673L260.398 9.16504" stroke="#0C2A92" stroke-width="2" stroke-linecap="round"/>
<path d="M244.327 69.4925L184 9.16504" stroke="#0C2A92" stroke-width="2" stroke-linecap="round"/>
<path d="M328.885 135.062L309.749 156.077" stroke="#0C2A92" stroke-width="2" stroke-linecap="round"/>
<path d="M309.6 211.163V156.028L316.523 92.9805" stroke="#0C2A92" stroke-width="2" stroke-linecap="round"/>
<path fill-rule="evenodd" clip-rule="evenodd" d="M234.932 296.709H336.302C336.846 296.709 337.291 297.155 337.291 297.698V304.621C337.291 305.165 336.846 305.61 336.302 305.61H234.932C234.388 305.61 233.943 305.165 233.943 304.621V297.698C233.943 297.155 234.388 296.709 234.932 296.709Z" fill="white" stroke="#0C2A92" stroke-width="2" stroke-linecap="round"/>
<path fill-rule="evenodd" clip-rule="evenodd" d="M112.965 444.545H89.675C86.9553 441.281 87.4003 436.435 90.6639 433.765C92.1474 432.529 94.0265 431.935 95.9055 431.985L112.273 432.727L112.965 444.545Z" fill="white" stroke="#0C2A92" stroke-width="2" stroke-linecap="round"/>
</svg>
