<svg width="852" height="749" viewBox="0 0 852 749" fill="none" xmlns="http://www.w3.org/2000/svg">
<path d="M126.118 457.2C142.751 457.2 156.236 443.724 156.236 427.1C156.236 410.476 142.751 397 126.118 397C109.484 397 96 410.476 96 427.1C96 443.724 109.484 457.2 126.118 457.2Z" stroke="#E3EAFE" stroke-width="5.24758"/>
<path d="M332.447 705.88C330.387 700.708 327.984 686.001 344.907 688.624C358.813 690.805 359.082 677.692 357.366 671" stroke="#E3EAFE" stroke-width="3.57165" stroke-linecap="round"/>
<path d="M100.351 636.948L75.6531 663.494L50.9556 690.065" stroke="#E3EAFE" stroke-width="3.74827" stroke-linecap="round"/>
<path d="M154.773 608L37 733.965" stroke="#E3EAFE" stroke-width="3.74827" stroke-linecap="round"/>
<path d="M195.257 743.502C201.475 743.502 206.515 738.464 206.515 732.251C206.515 726.037 201.475 721 195.257 721C189.04 721 184 726.037 184 732.251C184 738.464 189.04 743.502 195.257 743.502Z" stroke="#E3EAFE" stroke-width="10.4952"/>
<path d="M9.34108 459.677C11.7386 459.677 13.6822 457.735 13.6822 455.339C13.6822 452.942 11.7386 451 9.34108 451C6.94357 451 5 452.942 5 455.339C5 457.735 6.94357 459.677 9.34108 459.677Z" stroke="#E3EAFE" stroke-width="8.2462"/>
<path d="M609.577 692.674C607.713 688.874 605.04 677.869 617.965 678.972C628.609 679.903 628.045 669.951 626.353 665" stroke="#E3EAFE" stroke-width="3.74827" stroke-linecap="round"/>
<path d="M766.257 356.787C764.294 351.394 762.283 336.05 779.819 339.09C794.216 341.59 794.952 327.986 793.382 321" stroke="#E3EAFE" stroke-width="3.57165" stroke-linecap="round"/>
<path d="M28.7237 606.428C27.6936 603.854 26.4918 596.501 34.9533 597.8C41.8941 598.878 42.0413 592.334 41.1829 589" stroke="#E3EAFE" stroke-width="3.57165" stroke-linecap="round"/>
<path d="M736.934 124.846C747.391 124.846 755.868 116.374 755.868 105.923C755.868 95.4721 747.391 87 736.934 87C726.477 87 718 95.4721 718 105.923C718 116.374 726.477 124.846 736.934 124.846Z" stroke="#89B922" stroke-width="10"/>
<path d="M242 649C301.647 649 350 600.647 350 541C350 481.353 301.647 433 242 433C182.353 433 134 481.353 134 541C134 600.647 182.353 649 242 649Z" stroke="#89B922" stroke-width="13"/>
<path d="M561.395 571L536.698 597.546L512 624.092" stroke="#E3EAFE" stroke-width="3.74827" stroke-linecap="round"/>
<path d="M761.396 634.785C764.376 634.785 766.791 632.371 766.791 629.393C766.791 626.414 764.376 624 761.396 624C758.416 624 756 626.414 756 629.393C756 632.371 758.416 634.785 761.396 634.785Z" stroke="#E3EAFE" stroke-width="5.24758"/>
<path d="M525.257 28.5016C531.475 28.5016 536.515 23.4645 536.515 17.2508C536.515 11.0372 531.475 6 525.257 6C519.04 6 514 11.0372 514 17.2508C514 23.4645 519.04 28.5016 525.257 28.5016Z" stroke="#E3EAFE" stroke-width="10.4952"/>
<path d="M365.294 84.4361C363.481 112.98 338.475 134.322 309.424 132.084C280.373 129.846 258.308 104.878 260.122 76.3343C261.935 47.79 286.941 26.4483 315.992 28.6862C345.043 30.9241 367.107 55.8919 365.294 84.4361Z" fill="#0C2A92" stroke="#0C2A92"/>
<mask id="mask0" mask-type="alpha" maskUnits="userSpaceOnUse" x="259" y="28" width="107" height="105">
<path d="M365.379 84.5422C363.612 113.025 338.608 134.274 309.508 131.977C280.408 129.68 258.27 104.711 260.036 76.2281C261.803 47.7449 286.808 26.4967 315.907 28.7934C345.007 31.09 367.145 56.059 365.379 84.5422Z" fill="white" stroke="#0C2A92"/>
</mask>
<g mask="url(#mask0)">
<path d="M227.38 80.9868L248.794 77.8239C295.37 71.5754 321.757 61.126 327.992 46.5195C337.303 24.6066 309.604 12.8362 300.292 34.7491C290.981 56.662 263.77 101.841 285.623 115.944C300.192 125.346 316.326 119.628 334.028 98.751" stroke="white" stroke-width="2"/>
</g>
<path fill-rule="evenodd" clip-rule="evenodd" d="M342.544 52.0696L372.713 62.7369L391.964 91.3319C392.226 91.7179 392.714 91.794 393.099 91.5772C393.143 91.5396 393.143 91.5396 393.186 91.502L423.785 65.3347L436.697 65.3727L431.199 76.7601L397.783 106.271C393.716 109.851 387.489 109.481 383.896 105.429C383.744 105.254 383.591 105.08 383.441 104.865L342.544 52.0696Z" fill="white" stroke="#0C2A92" stroke-width="2" stroke-linejoin="round"/>
<path fill-rule="evenodd" clip-rule="evenodd" d="M355.22 43.6045C356.564 43.2519 357.53 42.9946 358.122 42.7919C363.418 41.3346 368.272 46.4319 369.643 49.9678C369.924 50.6837 371.079 53.1402 373.062 57.375L376.729 61.1181L358.398 82.0871L355.22 43.6045Z" fill="#0C2A92"/>
<path fill-rule="evenodd" clip-rule="evenodd" d="M315.945 46.4397L331.479 44.7433L347.918 43.0716L348.248 43.0547C355.264 42.3361 361.518 47.4109 362.288 54.3376C362.413 55.5328 362.375 56.716 362.172 57.8874L355.608 94.6706L355.959 110.851C352.095 117.401 345.794 122.793 337.136 127.074C332.786 129.212 322.526 132.804 316.101 133.32C311.831 133.665 304.454 132.394 293.892 129.461L323.812 92.3665L315.945 46.4397Z" fill="#345DEE"/>
<path fill-rule="evenodd" clip-rule="evenodd" d="M329.856 92.994L337.402 84.7787L334.881 70.6776L332.453 80.2862L329.764 80.2965L329.856 92.994Z" fill="#372898"/>
<path fill-rule="evenodd" clip-rule="evenodd" d="M351.977 42.4914L352.306 37.0048L342.699 30.594L339.761 43.6471L328.317 44.9405L349.976 50.1837L355.356 43.6343L351.977 42.4914Z" fill="white" stroke="#0C2A92" stroke-width="2" stroke-linecap="round"/>
<path fill-rule="evenodd" clip-rule="evenodd" d="M369.024 157.542C371.128 158.758 372.703 159.853 373.754 160.789C374.572 161.502 375.573 162.556 376.795 163.995C378.056 165.477 379.016 167.142 379.592 168.983L381.683 175.27C381.957 176.108 381.606 177.024 380.837 177.418C380.153 177.777 379.305 177.511 378.939 176.83C378.942 176.79 378.901 176.787 378.903 176.746L376.213 170.784L375.841 170.184C375.242 169.282 374.025 168.989 373.119 169.578C372.43 170.019 372.09 170.771 372.243 171.559C373.197 173.306 373.969 174.711 374.592 175.861C375.215 177.01 376.386 178.609 378.095 180.778L381.924 183.918C382.43 184.364 382.589 185.071 382.302 185.664C382.014 186.256 381.333 186.575 380.641 186.443C375.438 184.103 373.794 182.798 372.339 181.751C370.884 180.705 369.179 179.682 367.311 178.647C364.454 172.1 361.709 167.565 359.157 165.048C358.074 163.988 357.163 162.818 356.425 161.537L316.161 114.117C314.671 112.373 313.744 110.22 313.482 107.992L307.975 58.8357C307.585 55.4533 310.059 52.4012 313.462 52.0752C314.584 51.9519 315.725 52.1573 316.764 52.6416C322.963 55.504 327.185 61.3729 327.884 68.1317L331.826 106.253L358.566 144.472C358.752 144.772 358.982 145.034 359.212 145.296L369.024 157.542Z" fill="white" stroke="#372898" stroke-width="2" stroke-linejoin="round"/>
<path fill-rule="evenodd" clip-rule="evenodd" d="M351.934 42.5488L342.777 32.4053L342.408 31.7656L352.276 37.466L351.934 42.5488Z" fill="#372898"/>
<path fill-rule="evenodd" clip-rule="evenodd" d="M341.202 27.4246C342.083 31.452 344.972 35.012 349.187 36.625C355.77 39.1452 359.164 35.8363 361.613 29.4353C364.065 22.9936 363.709 18.5139 357.58 14.7599C351.926 11.2856 345.265 13.5813 342.341 19.0898C340.731 19.1366 339.177 20.2089 338.529 21.8781C337.681 24.064 338.708 26.5492 340.836 27.3572C340.959 27.3661 341.081 27.375 341.202 27.4246Z" fill="white" stroke="#0C2A92" stroke-width="2"/>
<path fill-rule="evenodd" clip-rule="evenodd" d="M350.653 21.0668C353.939 22.978 356.444 24.2613 358.128 24.9138C359.05 25.2662 360.349 25.5236 362.066 25.6888C364.888 25.9341 367.367 23.9509 367.758 21.2044C368.103 18.5361 366.422 16.0067 363.797 15.286L353.049 12.3853C349.171 11.329 345.049 12.6626 342.499 15.7016L339.272 19.6301C336.899 22.4779 337.149 26.6992 339.812 29.2997L340.429 29.9157C342.049 31.5022 344.642 31.486 346.231 29.8873C346.54 29.5832 346.813 29.1949 347.004 28.8006L350.653 21.0668Z" fill="white" stroke="#0C2A92" stroke-width="2" stroke-linecap="round"/>
<path fill-rule="evenodd" clip-rule="evenodd" d="M318.46 43.9508C312.693 43.9416 304.317 58.7873 301.317 70.875C301.041 71.9178 300.822 73.946 300.578 76.9534L330.402 80.6686L331.003 74.2121C331.692 71.3187 331.94 67.0442 331.791 61.3101C331.22 41.0737 324.227 43.96 318.46 43.9508Z" fill="#345DEE"/>
<path d="M663.027 540.185C687.523 525.468 699.771 513.244 699.771 503.474C699.771 488.838 681.542 488.838 681.542 503.474C681.542 518.109 676.627 564.714 692.152 567.453C702.516 569.252 710.135 562.179 715.092 546.113L717.754 543.783" stroke="white" stroke-width="2"/>
<path fill-rule="evenodd" clip-rule="evenodd" d="M696.617 463.778V473.589L680.232 475.225L677.364 460.507L696.617 463.778ZM622.473 463.778V473.589L606.088 475.225L603.22 460.507L622.473 463.778Z" fill="white" stroke="#372898" stroke-width="2" stroke-linecap="round"/>
<path d="M421.781 51.2755L381.816 190.395L521.215 230.28L561.18 91.1604L421.781 51.2755Z" fill="white" stroke="#372898" stroke-width="2" stroke-linecap="round"/>
<path fill-rule="evenodd" clip-rule="evenodd" d="M648.854 113.138L607.03 161.787L544.315 129.286L539.522 147.274L597.526 190.241C601.459 193.143 606.907 192.734 610.348 189.3L666.509 132.925L648.854 113.138Z" fill="#0C2A92"/>
<path d="M522.911 230.431L561.206 93.0437L420.137 51.4266L381.842 188.813L522.911 230.431Z" fill="white" stroke="#0C2A92" stroke-width="2" stroke-linecap="round"/>
<path d="M419.078 60.6179L421.731 51.4243L561.141 91.6626L558.308 101.492L419.078 60.6179Z" fill="#89B922" stroke="#0C2A92"/>
<path d="M429.194 60.6286C428.454 60.4122 428.055 59.6851 428.243 59.0157C428.432 58.3462 429.148 57.9449 429.889 58.1613C430.629 58.3776 431.028 59.1047 430.839 59.7742C430.651 60.4436 429.935 60.8449 429.194 60.6286ZM435.12 62.36C434.38 62.1437 433.981 61.4166 434.169 60.7471C434.358 60.0777 435.074 59.6764 435.815 59.8927C436.555 60.1091 436.954 60.8362 436.766 61.5056C436.577 62.1751 435.861 62.5764 435.12 62.36ZM441.046 64.0915C440.306 63.8752 439.907 63.1481 440.096 62.4786C440.284 61.8092 441 61.4079 441.741 61.6242C442.481 61.8406 442.88 62.5677 442.692 63.2371C442.503 63.9066 441.787 64.3079 441.046 64.0915Z" fill="white" stroke="#0C2A92"/>
<path d="M415.887 97.4538L538.742 133.894L515.069 219.278L392.214 182.838L415.887 97.4538Z" fill="#CAD9FF" stroke="#0C2A92"/>
<mask id="mask1" mask-type="alpha" maskUnits="userSpaceOnUse" x="391" y="96" width="149" height="124">
<path d="M415.855 97.4539L538.742 133.935L515.101 219.277L392.214 182.796L415.855 97.4539Z" fill="white" stroke="#0C2A92"/>
</mask>
<g mask="url(#mask1)">
<path fill-rule="evenodd" clip-rule="evenodd" d="M395.535 185.336L441.609 128.186C441.874 127.848 442.405 127.796 442.759 128.068C442.936 128.204 443.053 128.404 443.068 128.659L445.199 153.159L465.462 171.983L479.468 153.464C479.734 153.126 480.235 153.024 480.629 153.307C480.778 153.393 480.865 153.543 480.912 153.682L496.435 192.183L510.841 205.317L509.216 218.584L395.535 185.336Z" fill="white" stroke="#0C2A92" stroke-width="2" stroke-linecap="round"/>
</g>
<path d="M463.9 92.9401L503.574 104.46L502.454 108.415L462.78 96.8945L463.9 92.9401Z" fill="#0C2A92" stroke="#0C2A92"/>
<path fill-rule="evenodd" clip-rule="evenodd" d="M526.413 182.023L518.385 178.916L513.059 175.85C508.717 173.356 504.99 169.922 502.163 165.793C502.204 165.875 502.245 165.916 502.286 165.998C501.18 164.403 499.828 162.645 497.329 156.758C497.166 155.982 497.452 155.205 498.108 154.755C498.681 154.346 499.5 154.428 499.951 155L503.187 159.089C505.399 160.847 507.079 161.991 508.226 162.564C509.373 163.136 510.847 163.872 512.65 164.771C513.551 164.853 514.411 164.403 514.862 163.626C515.558 162.523 515.189 161.051 514.083 160.356L513.387 159.947L507.57 157.658H507.529C506.628 157.29 506.177 156.227 506.587 155.328C506.997 154.346 508.021 153.856 509.045 154.101L514.657 155.491C516.91 156.063 518.958 157.126 520.72 158.639C521.989 159.743 522.972 160.683 523.628 161.419C524.693 162.686 526.004 164.689 527.478 167.428L539.481 173.602L538.416 174.991L538.457 175.032L531.083 184.844L526.413 182.023Z" fill="white" stroke="#372898" stroke-width="2"/>
<path fill-rule="evenodd" clip-rule="evenodd" d="M277.847 219.062L278.789 219.921C281.329 222.251 283.541 224.867 285.425 227.729L313.854 271.186L345.191 286.557C348.141 287.988 351.459 288.438 354.654 287.865L374.07 284.268L364.239 307.366L349.697 303.482L303.9 285.658C301.565 284.758 299.558 283.082 298.288 280.956L265.394 226.993C263.551 223.927 264.493 219.961 267.565 218.081L267.606 218.04C270.883 216.078 275.021 216.487 277.847 219.062Z" fill="white" stroke="#0C2A92" stroke-width="2" stroke-linecap="round"/>
<path fill-rule="evenodd" clip-rule="evenodd" d="M592.979 121.682L581.1 183.372L532.149 168.737L528.052 186.725L587.081 213.706C592.856 216.323 599.656 213.829 602.278 208.065C602.442 207.697 602.606 207.288 602.729 206.92L624.726 140.937L626.365 107.619L601.5 112.975C597.199 113.915 593.84 117.349 592.979 121.682Z" fill="#345DEE"/>
<path fill-rule="evenodd" clip-rule="evenodd" d="M288.826 321.511L314.919 399.431C317.705 407.73 316.148 416.846 310.782 423.755L212.429 550.528L223.161 577.837L206.571 568.066L195.838 539.777L280.223 409.61L262.199 363.21" fill="white"/>
<path d="M288.825 321.511L314.919 399.431C317.705 407.73 316.148 416.846 310.782 423.755L212.429 550.528L223.161 577.837L206.571 568.066L195.838 539.777L280.223 409.61L262.199 363.21" stroke="#0C2A92" stroke-width="2"/>
<path fill-rule="evenodd" clip-rule="evenodd" d="M257.079 367.093C259.496 396.732 265.558 490.596 273.259 539.817C275.922 556.783 282.763 570.928 284.238 571.909C290.095 575.834 281.001 571.582 256.956 559.154L213.453 363.209" fill="white"/>
<path d="M257.079 367.093C259.496 396.732 265.558 490.596 273.259 539.817C275.922 556.783 282.763 570.928 284.238 571.909C290.095 575.834 281.001 571.582 256.956 559.154L213.453 363.209" stroke="#0C2A92" stroke-width="2"/>
<path fill-rule="evenodd" clip-rule="evenodd" d="M224.923 217.263H245.158H261.667H264.575C271.58 217.263 277.274 222.946 277.274 229.936C277.274 230.468 277.233 230.999 277.192 231.49L271.785 274.702L280.223 295.347H220.826L231.108 274.702L224.923 217.263Z" fill="#89B922"/>
<path fill-rule="evenodd" clip-rule="evenodd" d="M280.223 295.142L304.391 366.603L257.898 379.153L217.958 384.999L209.028 346.121C207.349 338.885 207.717 331.322 210.011 324.25L219.556 295.142L231.231 274.497H271.784L280.223 295.142Z" fill="#345DEE"/>
<path fill-rule="evenodd" clip-rule="evenodd" d="M298.042 578.532L269.941 578.614C269.081 578.614 268.221 578.287 267.606 577.674L260.52 570.601L261.544 578.532H252.778L254.048 558.378C254.129 557.11 255.154 556.129 256.423 556.129C265.64 561.444 272.686 565.164 277.643 567.331C282.599 569.497 283.828 569.497 281.329 567.331L295.585 572.114C297.919 572.89 299.189 575.425 298.37 577.755C298.288 578.041 298.206 578.287 298.042 578.532ZM220.785 570.478L225.742 574.24C226.807 575.057 227.012 576.611 226.192 577.674C225.742 578.287 225.004 578.655 224.226 578.655H208.25L199.812 567.412L195.101 556.17L190.595 561.076L184 554.126L195.06 539.736C195.347 539.368 195.838 539.327 196.207 539.572C196.33 539.654 196.412 539.777 196.453 539.899C202.024 553.635 206.284 562.302 209.274 565.981C212.306 569.702 216.156 571.214 220.785 570.478Z" fill="#0C2A92"/>
<path fill-rule="evenodd" clip-rule="evenodd" d="M266.746 241.383L247.862 301.07L285.343 298.985L303.163 240.565L266.746 241.383Z" fill="#CAD9FF"/>
<path fill-rule="evenodd" clip-rule="evenodd" d="M232.378 221.965C233.975 225.807 234.303 230.059 233.279 234.106L221.072 283.491L270.965 284.513L272.276 283.941C274.529 282.96 276.946 282.551 279.404 282.714L289.85 283.45L290.669 280.588C290.874 280.016 291.529 279.73 292.103 279.934C292.635 280.139 292.922 280.67 292.799 281.202C291.201 289.051 290.218 293.303 289.85 293.875C288.211 296.328 281.452 296.818 269.532 295.306L211.773 299.803C205.465 300.293 199.935 295.592 199.443 289.296C199.361 288.07 199.443 286.802 199.771 285.617L215.419 223.763C216.361 219.961 219.597 217.181 223.489 216.773H223.571C227.298 216.323 230.944 218.449 232.378 221.965Z" fill="white" stroke="#0C2A92" stroke-width="2" stroke-linecap="round"/>
<path fill-rule="evenodd" clip-rule="evenodd" d="M256.464 217.263L257.693 207.451L244.585 206.348L242.127 217.181" fill="white"/>
<path d="M256.464 217.263L257.693 207.451L244.585 206.348L242.127 217.181" stroke="#0C2A92" stroke-width="2" stroke-linecap="round"/>
<path d="M257.132 208.294L256.119 216.042L249.031 207.284L257.132 208.294Z" fill="#0C2A92" stroke="#0C2A92"/>
<path fill-rule="evenodd" clip-rule="evenodd" d="M244.682 206.358C247.98 208.806 252.498 209.509 256.731 207.947C263.371 205.497 263.8 200.813 261.49 194.38C259.181 187.947 255.95 184.829 248.873 186.061C242.302 187.235 238.732 193.337 240.097 199.343C238.917 200.468 238.413 202.249 239.015 203.924C239.807 206.131 242.197 207.275 244.333 206.487C244.463 206.482 244.58 206.439 244.682 206.358Z" fill="white" stroke="#0C2A92" stroke-width="2"/>
<path d="M242.479 188.65L243.065 189.45C242.955 189.552 242.854 189.651 242.747 189.755L242.745 189.757C242.645 189.856 242.54 189.959 242.425 190.066C241.328 191.263 240.731 192.29 240.502 193.175C240.296 194.11 240.106 195.583 239.949 197.645L240.363 198.799C240.59 198.65 240.785 198.535 240.948 198.448C241.219 198.296 241.608 198.156 242.022 198.047C242.092 198.026 242.153 198.023 242.191 198.023C242.207 198.023 242.221 198.023 242.233 198.024C243.208 197.827 244.209 197.95 245.076 198.363L245.8 195.087L245.851 194.856L246.06 194.748L257.619 188.725C257.018 188.187 256.551 187.788 256.218 187.503C256.102 187.403 256.003 187.318 255.919 187.245C255.302 186.748 254.712 186.595 254.15 186.531C253.95 186.509 253.768 186.498 253.58 186.487C253.485 186.481 253.388 186.476 253.286 186.468C253.004 186.448 252.697 186.414 252.407 186.314C249.809 185.436 247.816 186.441 246.681 187.031L246.679 187.032C246.103 187.327 245.576 187.648 245.076 187.961L244.474 187.172C246.261 185.484 247.438 183.158 247.643 180.576C247.851 177.859 246.419 175.631 244.657 173.635C242.903 171.648 241.006 170.096 238.283 169.935C232.659 169.619 227.723 173.88 227.282 179.422L227.282 179.422L227.282 179.428C227.199 180.339 227.431 181.232 227.816 182.129C228.103 182.796 228.458 183.432 228.814 184.069C228.942 184.298 229.071 184.528 229.196 184.76L229.198 184.764C230.79 187.772 233.058 189.882 236.648 190.1C238.779 190.142 240.786 189.643 242.479 188.65ZM226.786 179.386C226.623 181.174 227.545 182.824 228.39 184.336C228.515 184.561 228.64 184.783 228.758 185.002C230.401 188.107 232.8 190.372 236.624 190.601L226.786 179.386Z" fill="#0C2A92" stroke="#0C2A92"/>
<path fill-rule="evenodd" clip-rule="evenodd" d="M267.115 376.619L280.715 409.814L289.645 370.568L267.115 376.619Z" fill="#0C2A92"/>
<path d="M231.652 485.073L237.489 475.328L244.263 505.534L231.652 485.073Z" fill="#372898" stroke="#0C2A92"/>
<path fill-rule="evenodd" clip-rule="evenodd" d="M626.938 110.113L624.89 100.301L626.938 110.113ZM635.95 92.125L641.685 108.478L626.569 108.437L624.726 99.8516" fill="white"/>
<path d="M635.95 92.125L641.685 108.478L626.569 108.437L624.726 99.8516M626.938 110.113L624.89 100.301L626.938 110.113Z" stroke="#0C2A92" stroke-width="2" stroke-linecap="round"/>
<path fill-rule="evenodd" clip-rule="evenodd" d="M677.979 183.332L686.786 208.842L691.497 314.479L699.075 463.778H675.521L658.316 318.158L645.945 230.877L602.606 297.718L625.75 463.696L599.329 463.778L567.377 308.224C565.657 299.884 567.131 291.258 571.515 283.941L628.822 188.564L677.979 183.332Z" fill="white" stroke="#0C2A92" stroke-width="2"/>
<path fill-rule="evenodd" clip-rule="evenodd" d="M566.747 487.076H715.035V579.059C682.469 578.773 657.768 578.65 640.932 578.65C624.096 578.65 599.354 578.773 566.747 579.059V487.076Z" fill="#CAD9FF"/>
<mask id="mask2" mask-type="alpha" maskUnits="userSpaceOnUse" x="566" y="487" width="150" height="93">
<path fill-rule="evenodd" clip-rule="evenodd" d="M566.747 487.076H715.035V579.059C682.469 578.773 657.768 578.65 640.932 578.65C624.096 578.65 599.354 578.773 566.747 579.059V487.076Z" fill="white"/>
</mask>
<g mask="url(#mask2)">
<path d="M559.374 525.872C583.87 511.155 596.118 498.931 596.118 489.161C596.118 474.525 577.889 474.525 577.889 489.161C577.889 503.796 572.974 550.401 588.499 553.14C598.863 554.939 606.564 548.152 611.643 532.781" stroke="white" stroke-width="2"/>
</g>
<mask id="mask3" mask-type="alpha" maskUnits="userSpaceOnUse" x="566" y="487" width="150" height="93">
<path fill-rule="evenodd" clip-rule="evenodd" d="M566.747 487.076H715.035V579.059C682.469 578.773 657.768 578.65 640.932 578.65C624.096 578.65 599.354 578.773 566.747 579.059V487.076Z" fill="white"/>
</mask>
<g mask="url(#mask3)">
<path d="M663.011 540.181C687.507 525.463 699.756 513.24 699.756 503.469C699.756 488.834 681.527 488.834 681.527 503.469C681.527 518.105 676.611 564.709 692.136 567.448C702.5 569.247 710.119 562.175 715.076 546.108L717.738 543.778" stroke="white" stroke-width="2"/>
</g>
<mask id="mask4" mask-type="alpha" maskUnits="userSpaceOnUse" x="566" y="487" width="150" height="93">
<path fill-rule="evenodd" clip-rule="evenodd" d="M566.747 487.076H715.035V579.059C682.469 578.773 657.768 578.65 640.932 578.65C624.096 578.65 599.354 578.773 566.747 579.059V487.076Z" fill="white"/>
</mask>
<g mask="url(#mask4)">
<path d="M663.421 539.935C638.638 555.021 626.267 567.448 626.267 577.219C626.267 591.855 644.496 591.855 644.496 577.219C644.496 562.584 649.412 515.979 633.886 513.24C623.523 511.441 615.903 518.513 610.947 534.58" stroke="white" stroke-width="2"/>
</g>
<path fill-rule="evenodd" clip-rule="evenodd" d="M649.058 102.386L635.95 105.248L599.206 114.733L623.497 185.049L625.135 194.329L678.347 183.577L675.889 174.42L663.723 111.994C662.412 105.33 655.981 100.997 649.304 102.305C649.263 102.346 649.14 102.346 649.058 102.386Z" fill="#345DEE"/>
<path fill-rule="evenodd" clip-rule="evenodd" d="M635.951 92.0726L635.992 85.5587C635.6 78.8463 629.539 75.3701 623.133 77.0489C616.205 78.8664 614.829 84.0515 613.942 91.1896C613.054 98.3278 614.676 101.263 621.696 100.746C623.173 100.626 625.095 100.008 627.463 98.8906" fill="white"/>
<path d="M635.951 92.0726L635.992 85.5587C635.6 78.8463 629.539 75.3701 623.133 77.0489C616.205 78.8664 614.829 84.0515 613.942 91.1896C613.054 98.3278 614.676 101.263 621.696 100.746C623.173 100.626 625.095 100.008 627.463 98.8906" stroke="#0C2A92" stroke-width="2" stroke-linecap="round"/>
<path fill-rule="evenodd" clip-rule="evenodd" d="M632.295 94.5149C633.617 93.6747 634.447 92.0684 634.352 90.3168C634.182 87.8357 632.125 85.9283 629.783 86.1007C628.918 86.1536 628.165 86.4813 627.51 86.9622" fill="white"/>
<path d="M632.295 94.5149C633.617 93.6747 634.447 92.0684 634.352 90.3168C634.182 87.8357 632.125 85.9283 629.783 86.1007C628.918 86.1536 628.165 86.4813 627.51 86.9622" stroke="#0C2A92" stroke-width="2" stroke-linecap="round"/>
<path d="M629.693 86.3011L629.693 86.3011C628.846 86.3619 628.061 86.6508 627.409 87.1193L627.21 83.9438L627.184 83.5264L626.768 83.4811L616.528 82.3618C617.088 81.5685 617.525 80.9981 617.85 80.6665L617.855 80.6613L617.86 80.656C619.727 78.6417 621.335 77.7686 622.593 77.3952C623.726 77.0591 624.606 77.1159 625.236 77.1566C625.307 77.1612 625.376 77.1656 625.441 77.1693L625.441 77.1693L625.444 77.1694C627.409 77.2656 629.048 77.6203 630.39 78.1159C630.473 78.2093 630.573 78.2968 630.666 78.3739C630.834 78.5131 631.057 78.6773 631.329 78.8645C631.875 79.2398 632.647 79.7257 633.641 80.316C634.451 80.7968 635.104 81.8788 635.508 83.7582C635.887 85.5282 636.025 87.9133 635.916 90.9334L634.394 90.9344C634.409 90.7344 634.408 90.5277 634.387 90.3118C634.232 87.9181 632.13 86.1282 629.693 86.3011Z" fill="#0C2A92" stroke="#0C2A92"/>
<path fill-rule="evenodd" clip-rule="evenodd" d="M646.027 230.345L686.99 218.898L646.027 230.345Z" fill="white"/>
<path d="M646.027 230.345L686.99 218.898" stroke="#372898" stroke-width="2" stroke-linecap="round"/>
<path fill-rule="evenodd" clip-rule="evenodd" d="M646.232 230.386L648.895 256.509L687.195 230.386V218.898L646.232 230.386Z" fill="#0C2A92"/>
<path fill-rule="evenodd" clip-rule="evenodd" d="M608.136 288.806L585.196 299.108L604.04 307.611L602.401 298.086L608.136 288.806Z" fill="#0C2A92"/>
<path fill-rule="evenodd" clip-rule="evenodd" d="M623.252 469.501L625.75 483.238V487.489H612.806H602.196H582.124C579.298 486.753 577.782 485.772 577.577 484.546C577.209 482.706 576.389 479.436 591.464 476.615C594.659 476.002 595.601 474.448 598.796 472.404C599.739 471.791 602.032 470.81 605.596 469.501C606.825 471.096 609.488 472.077 613.625 472.404C617.681 472.69 620.917 471.75 623.252 469.501ZM697.396 469.501L699.894 483.238V487.489H686.95H676.34H656.268C653.442 486.753 651.926 485.772 651.721 484.546C651.353 482.706 650.533 479.436 665.608 476.615C668.803 476.002 669.745 474.448 672.94 472.404C673.882 471.791 676.176 470.81 679.74 469.501C680.969 471.096 683.632 472.077 687.769 472.404C691.825 472.69 695.061 471.75 697.396 469.501Z" fill="#0C2A92"/>
<path d="M282.691 237.222L283.181 237.212V236.723V236.722V236.722V236.721V236.721V236.72V236.72V236.719V236.719V236.718V236.718V236.717V236.717V236.716V236.716V236.715V236.715V236.714V236.714V236.713V236.713V236.712V236.712V236.711V236.711V236.71V236.71V236.709V236.709V236.708V236.708V236.707V236.707V236.706V236.706V236.705V236.705V236.704V236.704V236.703V236.703V236.702V236.702V236.701V236.701V236.7V236.7V236.699V236.699V236.698V236.698V236.697V236.696V236.696V236.695V236.695V236.694V236.694V236.693V236.693V236.692V236.692V236.691V236.691V236.69V236.69V236.689V236.689V236.688V236.687V236.687V236.686V236.686V236.685V236.685V236.684V236.684V236.683V236.683V236.682V236.682V236.681V236.68V236.68V236.679V236.679V236.678V236.678V236.677V236.677V236.676V236.676V236.675V236.674V236.674V236.673V236.673V236.672V236.672V236.671V236.671V236.67V236.669V236.669V236.668V236.668V236.667V236.667V236.666V236.666V236.665V236.664V236.664V236.663V236.663V236.662V236.662V236.661V236.661V236.66V236.659V236.659V236.658V236.658V236.657V236.657V236.656V236.655V236.655V236.654V236.654V236.653V236.653V236.652V236.651V236.651V236.65V236.65V236.649V236.649V236.648V236.647V236.647V236.646V236.646V236.645V236.645V236.644V236.643V236.643V236.642V236.642V236.641V236.641V236.64V236.639V236.639V236.638V236.638V236.637V236.636V236.636V236.635V236.635V236.634V236.634V236.633V236.632V236.632V236.631V236.631V236.63V236.629V236.629V236.628V236.628V236.627V236.627V236.626V236.625V236.625V236.624V236.624V236.623V236.622V236.622V236.621V236.621V236.62V236.619V236.619V236.618V236.618V236.617V236.616V236.616V236.615V236.615V236.614V236.614V236.613V236.612V236.612V236.611V236.611V236.61V236.609V236.609V236.608V236.608V236.607V236.606V236.606V236.605V236.605V236.604V236.603V236.603V236.602V236.602V236.601V236.6V236.6V236.599V236.599V236.598V236.597V236.597V236.596V236.596V236.595V236.594V236.594V236.593V236.593V236.592V236.591V236.591V236.59V236.59V236.589V236.588V236.588V236.587V236.587V236.586V236.585V236.585V236.584V236.584V236.583V236.582V236.582V236.581V236.581V236.58V236.58V236.579V236.578V236.578V236.577V236.577V236.576V236.575V236.575V236.574V236.574V236.573V236.572V236.572V236.571V236.571V236.57V236.569V236.569V236.568V236.568V236.567V236.566V236.566V236.565V236.565V236.564V236.563V236.563V236.562V236.562V236.561V236.56V236.56V236.559V236.559V236.558V236.557V236.557V236.556V236.556V236.555V236.554V236.554V236.553V236.553V236.552V236.551V236.551V236.55V236.55V236.549V236.548V236.548V236.547V236.547V236.546V236.545V236.545V236.544V236.544V236.543V236.543V236.542V236.541V236.541V236.54V236.54V236.539V236.538V236.538V236.537V236.537V236.536V236.535V236.535V236.534V236.534V236.533V236.532V236.532V236.531V236.531V236.53V236.53V236.529V236.528V236.528V236.527V236.527V236.526V236.525V236.525V236.524V236.524V236.523V236.523V236.522V236.521V236.521V236.52V236.52V236.519V236.518V236.518V236.517V236.517V236.516V236.516V236.515V236.514V236.514V236.513V236.513V236.512V236.512V236.511V236.51V236.51V236.509V236.509V236.508V236.508V236.507V236.506V236.506V236.505V236.505V236.504V236.504V236.503V236.502V236.502V236.501V236.501V236.5V236.5V236.499V236.498V236.498V236.497V236.497V236.496V236.496V236.495V236.495V236.494V236.493V236.493V236.492V236.492V236.491V236.491V236.49V236.49V236.489V236.488V236.488V236.487V236.487V236.486V236.486V236.485V236.485V236.484V236.483V236.483V236.482V236.482V236.481V236.481V236.48V236.48V236.479V236.479V236.478V236.477V236.477V236.476V236.476V236.475V236.475V236.474V236.474V236.473V236.473V236.472V236.472V236.471V236.47V236.47V236.469V236.469V236.468V236.468V236.467V236.467V236.466V236.466V236.465V236.465V236.464V236.464V236.463V236.463V236.462V236.461V236.461V236.46V236.46V236.459V236.459V236.458V236.458V236.457V236.457V236.456V236.456V236.455V236.455V236.454V236.454V236.453V236.453V236.452V236.452V236.451V236.451V236.45V236.45V236.449V236.449V236.448V236.448V236.447V236.447V236.446V236.446V236.445V236.445V236.444V236.444V236.443V236.443V236.442V236.442V236.441V236.441V236.44V236.44V236.439V236.439V236.438V236.438V236.437V236.437V236.436C283.181 234.22 284.963 232.439 287.187 232.439C289.41 232.439 291.193 234.22 291.193 236.436V236.437V236.437V236.437V236.437V236.438V236.438V236.438V236.438V236.439V236.439V236.439V236.439V236.439V236.44V236.44V236.44V236.44V236.441V236.441V236.441V236.441V236.441V236.442V236.442V236.442V236.442V236.443V236.443V236.443V236.443V236.443V236.444V236.444V236.444V236.444V236.444V236.445V236.445V236.445V236.445V236.445V236.446V236.446V236.446V236.446V236.447V236.447V236.447V236.447V236.447V236.447V236.448V236.448V236.448V236.448V236.448V236.449V236.449V236.449V236.449V236.449V236.45V236.45V236.45V236.45V236.45V236.451V236.451V236.451V236.451V236.451V236.451V236.452V236.452V236.452V236.452V236.452V236.453V236.453V236.453V236.453V236.453V236.453V236.454V236.454V236.454V236.454V236.454V236.454V236.455V236.455V236.455V236.455V236.455V236.455V236.456V236.456V236.456V236.456V236.456V236.456V236.457V236.457V236.457V236.457V236.457V236.457V236.458V236.458V236.458V236.458V236.458V236.458V236.459V236.459V236.459V236.459V236.459V236.459V236.459V236.46V236.46V236.46V236.46V236.46V236.46V236.461V236.461V236.461V236.461V236.461V236.461V236.461V236.462V236.462V236.462V236.462V236.462V236.462V236.462V236.463V236.463V236.463V236.463V236.463V236.463V236.463V236.464V236.464V236.464V236.464V236.464V236.464V236.464V236.465V236.465V236.465V236.465V236.465V236.465V236.465V236.466V236.466V236.466V236.466V236.466V236.466V236.466V236.466V236.467V236.467V236.467V236.467V236.467V236.467V236.467V236.468V236.468V236.468V236.468V236.468V236.468V236.468V236.468V236.469V236.469V236.469V236.469V236.469V236.469V236.469V236.469V236.47V236.47V236.47V236.47V236.47V236.47V236.47V236.47V236.471V236.471V236.471V236.471V236.471V236.471V236.471V236.471V236.472V236.472V236.472V236.472V236.472V236.472V236.472V236.472V236.473V236.473V236.473V236.473V236.473V236.473V236.473V236.473V236.474V236.474V236.474V236.474V236.474V236.474V236.474V236.474V236.475V236.475V236.475V236.475V236.475V236.475V236.475V236.475V236.475V236.476V236.476V236.476V236.476V236.476V236.476V236.476V236.476V236.477V236.477V236.477V236.477V236.477V236.477V236.477V236.477V236.478V236.478V236.478V236.478V236.478V236.478V236.478V236.478V236.478V236.479V236.479V236.479V236.479V236.479V236.479V236.479V236.479V236.48V236.48V236.48V236.48V236.48V236.48V236.48V236.48V236.481V236.481V236.481V236.481V236.481V236.481V236.481V236.481V236.482V236.482V236.482V236.482V236.482V236.482V236.482V236.482V236.482V236.483V236.483V236.483V236.483V236.483V236.483V236.483V236.483V236.484V236.484V236.484V236.484V236.484V236.484V236.484V236.484V236.485V236.485V236.485V236.485V236.485V236.485V236.485V236.486V236.486V236.486V236.486V236.486V236.486V236.486V236.486V236.487V236.487V236.487V236.487V236.487V236.487V236.487V236.487V236.488V236.488V236.488V236.488V236.488V236.488V236.488V236.489V236.489V236.489V236.489V236.489V236.489V236.489V236.489V236.49V236.49V236.49V236.49V236.49V236.49V236.49V236.491V236.491V236.491V236.491V236.491V236.491V236.491V236.492V236.492V236.492V236.492V236.492V236.492V236.492V236.493V236.493V236.493V236.493V236.493V236.493V236.493V236.494V236.494V236.494V236.494V236.494V236.494V236.495V236.495V236.495V236.495V236.495V236.495V236.495V236.496V236.496V236.496V236.496V236.496V236.496V236.497V236.497V236.497V236.497V236.497V236.497V236.497V236.498V236.498V236.498V236.498V236.498V236.498V236.499V236.499V236.499V236.499V236.499V236.499V236.5V236.5V236.5V236.5V236.5V236.5V236.501V236.501V236.501V236.501V236.501V236.502V236.502V236.502V236.502V236.502V236.502V236.503V236.503V236.503V236.503V236.503V236.503V236.504V236.504V236.504V236.504V236.504V236.505V236.505V236.505V236.505V236.505V236.506V236.506V236.506V236.506V236.506V236.507V236.507V236.507V236.507V236.507V236.507V236.508V236.508V236.508V236.508V236.508V236.509V236.509V236.509V236.509V236.51V236.51V236.51V236.51V236.51V236.511V236.511V236.511V236.511V236.511V236.512V236.512V236.512V236.512V236.512V236.513V236.513V236.513V236.513V236.514V236.514V236.514V236.514V236.514V236.515V236.515V236.515V236.515V236.516V236.516V236.516V236.516V236.517V236.517V236.517V236.517V236.517V236.518V236.518V236.518V237.031L291.705 237.018L299.932 236.814C300.214 236.814 300.497 236.849 300.782 236.92C302.146 237.303 302.96 238.648 302.759 239.993L287.912 240.352L287.877 240.353L287.842 240.358C287.644 240.391 287.439 240.392 287.187 240.392C287.007 240.392 286.868 240.39 286.775 240.366L286.71 240.35L286.643 240.352L267.378 240.786L267.594 240.053L267.594 240.053L267.595 240.049C268.025 238.547 269.389 237.504 270.976 237.468C270.976 237.468 270.976 237.468 270.977 237.468L282.691 237.222Z" fill="#0C2A92" stroke="#0C2A92"/>
<path fill-rule="evenodd" clip-rule="evenodd" d="M420.728 242.997H452.679C484.344 242.997 510.028 268.629 510.028 300.231V332.118C510.028 363.719 484.344 389.352 452.679 389.352H420.728C389.063 389.352 363.379 363.719 363.379 332.118V300.231C363.379 268.629 389.063 242.997 420.728 242.997Z" fill="#CAD9FF"/>
<mask id="mask5" mask-type="alpha" maskUnits="userSpaceOnUse" x="363" y="242" width="148" height="148">
<path fill-rule="evenodd" clip-rule="evenodd" d="M420.728 242.997H452.679C484.344 242.997 510.028 268.629 510.028 300.231V332.118C510.028 363.719 484.344 389.352 452.679 389.352H420.728C389.063 389.352 363.379 363.719 363.379 332.118V300.231C363.379 268.629 389.063 242.997 420.728 242.997Z" fill="white"/>
</mask>
<g mask="url(#mask5)">
<path fill-rule="evenodd" clip-rule="evenodd" d="M402.704 331.014H412.945V390.292H402.704V331.014ZM422.776 298.309H433.017V390.292H422.776V298.309ZM442.848 350.228H453.089V390.292H442.848V350.228ZM462.92 319.159H473.161V390.292H462.92V319.159Z" fill="white"/>
</g>
<path fill-rule="evenodd" clip-rule="evenodd" d="M369.114 421.792H504.703C504.703 478.945 504.703 518.314 504.703 539.899C504.703 561.484 504.703 574.444 504.703 578.777L436.908 511.118L369.114 578.777V539.899V421.792Z" fill="white" stroke="#0C2A92" stroke-width="2" stroke-linecap="round"/>
<path d="M625.501 100.438L627.42 99.6213L626.719 106.518L625.501 100.438Z" fill="#0C2A92" stroke="#0C2A92"/>
<path fill-rule="evenodd" clip-rule="evenodd" d="M417.041 435.692H456.776C459.275 435.692 461.282 437.696 461.282 440.189V459.404C461.282 461.897 459.275 463.901 456.776 463.901H417.041C414.542 463.901 412.535 461.897 412.535 459.404V440.189C412.535 437.696 414.542 435.692 417.041 435.692Z" fill="#CAD9FF"/>
<path d="M430.15 455.72L426.053 452.654L421.957 449.588L426.053 446.521L430.15 443.455" stroke="white" stroke-width="2" stroke-linecap="round"/>
<path d="M444.077 443.455L448.174 446.521L452.27 449.588L448.174 452.654L444.077 455.72" stroke="white" stroke-width="2" stroke-linecap="round"/>
<path d="M440.391 441.002L433.836 458.173" stroke="white" stroke-width="2" stroke-linecap="round"/>
<path fill-rule="evenodd" clip-rule="evenodd" d="M566.763 579.063H555.293V487.08H566.763V579.063Z" fill="#345DEE"/>
<path fill-rule="evenodd" clip-rule="evenodd" d="M435.27 53.8601C439.08 57.1307 442.111 59.1747 444.282 59.9924C447.559 61.2188 455.547 61.832 455.547 61.4232C455.547 61.137 454.81 59.6653 453.294 56.9262C451.942 55.3728 449.484 54.1872 445.921 53.4513C442.357 52.7155 438.834 52.8381 435.27 53.8601Z" fill="white" stroke="#372898" stroke-width="2" stroke-linecap="round"/>
<path fill-rule="evenodd" clip-rule="evenodd" d="M388.776 481.684H411.716H388.776ZM388.776 493.54H404.179H388.776ZM419.417 481.684H431.092H419.417ZM439.08 481.684H462.797H439.08ZM417.41 493.744H452.147H417.41ZM469.843 481.684H485.041H469.843ZM461.118 493.54H484.877H461.118Z" fill="white" stroke="#0C2A92" stroke-width="2" stroke-linecap="round"/>
<path fill-rule="evenodd" clip-rule="evenodd" d="M422.776 298.331H433.017V331.036H422.776V298.331ZM442.848 350.25H453.089V360.88H442.848V350.25ZM402.704 331.036H412.945V347.389H402.704V331.036ZM462.92 319.181H473.161V350.25H462.92V319.181Z" fill="#0C2A92"/>
<path d="M374.234 312.026H407.824L427.897 255.814L447.969 307.733L468.041 278.299L485.041 307.733H497.944" stroke="white" stroke-width="2" stroke-linecap="round" stroke-linejoin="round"/>
<path d="M493.233 303.441L497.944 307.733L493.233 312.026" stroke="white" stroke-width="2" stroke-linecap="round" stroke-linejoin="round"/>
<path fill-rule="evenodd" clip-rule="evenodd" d="M465.378 172.621L443.463 176.341C442.152 176.545 440.964 177.322 440.227 178.426L428.716 195.31L427.282 194.697L437.892 174.951C438.67 173.479 440.145 172.539 441.783 172.375L463.945 170.372L465.378 172.621ZM495.896 192.039L500.402 196.332L488.809 192.816C487.171 192.325 485.409 192.53 483.935 193.388L463.33 205.326L461.692 204.713L482.542 190.281C484.099 189.178 486.106 188.891 487.908 189.464L495.896 192.039Z" fill="#0C2A92"/>
<path fill-rule="evenodd" clip-rule="evenodd" d="M391.644 184.885L514.124 219.839L391.644 184.885Z" fill="white"/>
<path d="M391.644 184.885L514.124 219.839" stroke="#372898" stroke-width="2" stroke-linecap="round"/>
<path d="M932.08 10L794.441 161.555" stroke="#E3EAFE" stroke-width="3.74827" stroke-linecap="round"/>
<path d="M886.389 91.2559L772 219.329" stroke="#E3EAFE" stroke-width="3.74827" stroke-linecap="round"/>
</svg>
