<svg width="65" height="65" viewBox="0 0 65 65" fill="none" xmlns="http://www.w3.org/2000/svg">
<rect width="65" height="65" rx="22" fill="#F1ECFB"/>
<path d="M21 39.9984V42C21 43.6547 25.0312 45 30 45C34.9688 45 39 43.6547 39 42V39.9984C37.0641 41.3625 33.525 42 30 42C26.475 42 22.9359 41.3625 21 39.9984ZM36 27C40.9688 27 45 25.6547 45 24C45 22.3453 40.9688 21 36 21C31.0312 21 27 22.3453 27 24C27 25.6547 31.0312 27 36 27ZM21 35.0812V37.5C21 39.1547 25.0312 40.5 30 40.5C34.9688 40.5 39 39.1547 39 37.5V35.0812C37.0641 36.675 33.5203 37.5 30 37.5C26.4797 37.5 22.9359 36.675 21 35.0812ZM40.5 35.5969C43.1859 35.0766 45 34.1109 45 33V30.9984C43.9125 31.7672 42.3141 32.2922 40.5 32.6156V35.5969ZM30 28.5C25.0312 28.5 21 30.1781 21 32.25C21 34.3219 25.0312 36 30 36C34.9688 36 39 34.3219 39 32.25C39 30.1781 34.9688 28.5 30 28.5ZM40.2797 31.1391C43.0922 30.6328 45 29.6391 45 28.5V26.4984C43.3359 27.675 40.4766 28.3078 37.4672 28.4578C38.85 29.1281 39.8672 30.0281 40.2797 31.1391Z" fill="#783BFF"/>
</svg>
