<svg width="65" height="65" viewBox="0 0 65 65" fill="none" xmlns="http://www.w3.org/2000/svg">
<rect width="65" height="65" rx="22" fill="#EEF0FF"/>
<path fill-rule="evenodd" clip-rule="evenodd" d="M40.4308 33.98C40.4708 33.66 40.5008 33.34 40.5008 33C40.5008 32.66 40.4708 32.34 40.4308 32.02L42.5408 30.37C42.7308 30.22 42.7808 29.95 42.6608 29.73L40.6608 26.27C40.5408 26.05 40.2708 25.97 40.0508 26.05L37.5608 27.05C37.0408 26.65 36.4808 26.32 35.8708 26.07L35.4908 23.42C35.4608 23.18 35.2508 23 35.0008 23H31.0008C30.7508 23 30.5408 23.18 30.5108 23.42L30.1308 26.07C29.5208 26.32 28.9608 26.66 28.4408 27.05L25.9508 26.05C25.7208 25.96 25.4608 26.05 25.3408 26.27L23.3408 29.73C23.2108 29.95 23.2708 30.22 23.4608 30.37L25.5708 32.02C25.5308 32.34 25.5008 32.67 25.5008 33C25.5008 33.33 25.5308 33.66 25.5708 33.98L23.4608 35.63C23.2708 35.78 23.2208 36.05 23.3408 36.27L25.3408 39.73C25.4608 39.95 25.7308 40.03 25.9508 39.95L28.4408 38.95C28.9608 39.35 29.5208 39.68 30.1308 39.93L30.5108 42.58C30.5408 42.82 30.7508 43 31.0008 43H35.0008C35.2508 43 35.4608 42.82 35.4908 42.58L35.8708 39.93C36.4808 39.68 37.0408 39.34 37.5608 38.95L40.0508 39.95C40.2808 40.04 40.5408 39.95 40.6608 39.73L42.6608 36.27C42.7808 36.05 42.7308 35.78 42.5408 35.63L40.4308 33.98ZM33.0008 36.5C31.0708 36.5 29.5008 34.93 29.5008 33C29.5008 31.07 31.0708 29.5 33.0008 29.5C34.9308 29.5 36.5008 31.07 36.5008 33C36.5008 34.93 34.9308 36.5 33.0008 36.5Z" fill="#465DFF"/>
</svg>
