<svg width="65" height="65" viewBox="0 0 65 65" fill="none" xmlns="http://www.w3.org/2000/svg">
<rect width="65" height="65" rx="22" fill="#F1ECFB"/>
<path d="M32.6023 21.6941C31.8181 21.6381 31.0004 21.8173 30.2722 22.243C29.8045 22.5108 29.3942 22.8683 29.0649 23.295C28.7357 23.7217 28.4938 24.2092 28.3533 24.7295C28.2128 25.2499 28.1764 25.7928 28.2462 26.3273C28.316 26.8617 28.4906 27.3771 28.76 27.844L36.9822 42.0705C38.1136 44.0421 40.6229 44.6918 42.5944 43.5716C44.5548 42.4514 45.2045 39.9309 44.0843 37.9706L35.8844 23.744C35.5458 23.1608 35.0697 22.6691 34.4977 22.3119C33.9256 21.9546 33.275 21.7425 32.6023 21.6941ZM26.5196 27.6199L20.5601 37.9706C20.197 38.593 20.0038 39.2999 20 40.0205C20 40.5604 20.1063 41.095 20.3129 41.5938C20.5195 42.0926 20.8224 42.5458 21.2041 42.9276C21.5859 43.3093 22.0391 43.6121 22.5379 43.8187C23.0367 44.0253 23.5713 44.1317 24.1111 44.1317C24.8318 44.1295 25.5391 43.9379 26.1624 43.5761C26.7856 43.2144 27.3028 42.6952 27.6622 42.0705V42.0817L31.202 35.943C29.6897 33.3666 28.1439 30.8013 26.7548 28.1464C26.6652 27.9784 26.5868 27.7992 26.5308 27.6199H26.5196Z" fill="#7432FF"/>
</svg>
