<svg width="65" height="65" viewBox="0 0 65 65" fill="none" xmlns="http://www.w3.org/2000/svg">
<rect width="65" height="65" rx="22" fill="#FFE6DF"/>
<path fill-rule="evenodd" clip-rule="evenodd" d="M40.43 32.98C40.47 32.66 40.5 32.34 40.5 32C40.5 31.66 40.47 31.34 40.43 31.02L42.54 29.37C42.73 29.22 42.78 28.95 42.66 28.73L40.66 25.27C40.54 25.05 40.27 24.97 40.05 25.05L37.56 26.05C37.04 25.65 36.48 25.32 35.87 25.07L35.49 22.42C35.46 22.18 35.25 22 35 22H31C30.75 22 30.54 22.18 30.51 22.42L30.13 25.07C29.52 25.32 28.96 25.66 28.44 26.05L25.95 25.05C25.72 24.96 25.46 25.05 25.34 25.27L23.34 28.73C23.21 28.95 23.27 29.22 23.46 29.37L25.57 31.02C25.53 31.34 25.5 31.67 25.5 32C25.5 32.33 25.53 32.66 25.57 32.98L23.46 34.63C23.27 34.78 23.22 35.05 23.34 35.27L25.34 38.73C25.46 38.95 25.73 39.03 25.95 38.95L28.44 37.95C28.96 38.35 29.52 38.68 30.13 38.93L30.51 41.58C30.54 41.82 30.75 42 31 42H35C35.25 42 35.46 41.82 35.49 41.58L35.87 38.93C36.48 38.68 37.04 38.34 37.56 37.95L40.05 38.95C40.28 39.04 40.54 38.95 40.66 38.73L42.66 35.27C42.78 35.05 42.73 34.78 42.54 34.63L40.43 32.98ZM33 35.5C31.07 35.5 29.5 33.93 29.5 32C29.5 30.07 31.07 28.5 33 28.5C34.93 28.5 36.5 30.07 36.5 32C36.5 33.93 34.93 35.5 33 35.5Z" fill="#FF6D43"/>
</svg>
