<svg width="65" height="65" viewBox="0 0 65 65" fill="none" xmlns="http://www.w3.org/2000/svg">
<rect width="65" height="65" rx="22" fill="#CFF3FB"/>
<path fill-rule="evenodd" clip-rule="evenodd" d="M44 29C44 30.1 43.1 31 42 31C41.82 31 41.65 30.98 41.49 30.93L37.93 34.48C37.98 34.64 38 34.82 38 35C38 36.1 37.1 37 36 37C34.9 37 34 36.1 34 35C34 34.82 34.02 34.64 34.07 34.48L31.52 31.93C31.36 31.98 31.18 32 31 32C30.82 32 30.64 31.98 30.48 31.93L25.93 36.49C25.98 36.65 26 36.82 26 37C26 38.1 25.1 39 24 39C22.9 39 22 38.1 22 37C22 35.9 22.9 35 24 35C24.18 35 24.35 35.02 24.51 35.07L29.07 30.52C29.02 30.36 29 30.18 29 30C29 28.9 29.9 28 31 28C32.1 28 33 28.9 33 30C33 30.18 32.98 30.36 32.93 30.52L35.48 33.07C35.64 33.02 35.82 33 36 33C36.18 33 36.36 33.02 36.52 33.07L40.07 29.51C40.02 29.35 40 29.18 40 29C40 27.9 40.9 27 42 27C43.1 27 44 27.9 44 29Z" fill="#04C5DF"/>
</svg>
