<svg width="65" height="65" viewBox="0 0 65 65" fill="none" xmlns="http://www.w3.org/2000/svg">
<rect width="65" height="65" rx="22" fill="#DDFFFB"/>
<path fill-rule="evenodd" clip-rule="evenodd" d="M43 28C43 29.1 42.1 30 41 30C40.82 30 40.65 29.98 40.49 29.93L36.93 33.48C36.98 33.64 37 33.82 37 34C37 35.1 36.1 36 35 36C33.9 36 33 35.1 33 34C33 33.82 33.02 33.64 33.07 33.48L30.52 30.93C30.36 30.98 30.18 31 30 31C29.82 31 29.64 30.98 29.48 30.93L24.93 35.49C24.98 35.65 25 35.82 25 36C25 37.1 24.1 38 23 38C21.9 38 21 37.1 21 36C21 34.9 21.9 34 23 34C23.18 34 23.35 34.02 23.51 34.07L28.07 29.52C28.02 29.36 28 29.18 28 29C28 27.9 28.9 27 30 27C31.1 27 32 27.9 32 29C32 29.18 31.98 29.36 31.93 29.52L34.48 32.07C34.64 32.02 34.82 32 35 32C35.18 32 35.36 32.02 35.52 32.07L39.07 28.51C39.02 28.35 39 28.18 39 28C39 26.9 39.9 26 41 26C42.1 26 43 26.9 43 28Z" fill="#0CDCC3"/>
</svg>
