<svg width="65" height="65" viewBox="0 0 65 65" fill="none" xmlns="http://www.w3.org/2000/svg">
<rect width="65" height="65" rx="22" fill="#E4FEDF"/>
<path d="M20 27.3848C22.4615 24.923 24.923 22.4615 27.3848 20C29.1924 21.8076 31 23.6152 32.8072 25.4231C32.2693 25.9618 31.731 26.5004 31.1924 27.0386C30.8844 26.7312 30.5773 26.4232 30.2692 26.1158C29.5766 26.8077 28.885 27.5004 28.1923 28.1923C27.6537 27.6541 27.1151 27.1155 26.5769 26.5769C27.2688 25.8842 27.9618 25.1926 28.6534 24.5C28.2308 24.077 27.8078 23.654 27.3848 23.2313C26.0002 24.6156 24.6156 26.0002 23.2313 27.3851C24.5003 28.6545 25.7696 29.9231 27.0386 31.1924C26.5004 31.731 25.9618 32.2693 25.4231 32.8072C23.6152 31 21.8076 29.1924 20 27.3848Z" fill="#6AC75A"/>
<path d="M37.9759 21.9824C38.1975 21.6404 38.688 21.521 39.049 21.702C39.2138 21.7816 39.3768 21.8709 39.5212 21.9845C40.4481 22.9031 41.363 23.835 42.2945 24.7495C42.4524 24.9326 42.5199 25.1843 42.4936 25.4235C42.4676 25.6883 42.3347 25.9347 42.1477 26.121C41.5731 26.6966 40.9978 27.2709 40.4229 27.8462C39.0379 26.4619 37.6537 25.077 36.2691 23.6924C36.8375 23.1216 37.4103 22.5553 37.9759 21.9824Z" fill="#6AC75A"/>
<path d="M21.6155 38.231C26.1151 33.7691 30.615 29.3076 35.1153 24.8461C36.4615 26.1922 37.8077 27.5381 39.1539 28.8846C34.6924 33.3849 30.2308 37.8849 25.7689 42.3845C24.3843 42.3845 23.0001 42.3845 21.6155 42.3845C21.6155 40.9999 21.6155 39.6156 21.6155 38.231Z" fill="#6AC75A"/>
<path d="M36.9614 32.9232C37.4996 32.3846 38.0383 31.846 38.5769 31.3077C40.3848 33.1153 42.1924 34.9229 44 36.7309C41.5385 39.1539 39.0771 41.577 36.6152 44C34.8076 42.1924 33 40.3848 31.1928 38.5769C31.7307 38.0383 32.269 37.4997 32.8076 36.9614C34.0769 38.2304 35.3459 39.4997 36.6152 40.7687C37.9998 39.4229 39.3848 38.0774 40.7687 36.7305C40.3457 36.2695 39.923 35.8077 39.5004 35.3466C38.8074 36.0382 38.1158 36.7312 37.4231 37.4232C36.8845 36.8849 36.3459 36.3463 35.8077 35.8077C36.4996 35.115 37.1923 34.4234 37.8842 33.7308C37.5768 33.4611 37.2688 33.1929 36.9614 32.9232Z" fill="#6AC75A"/>
</svg>
