<svg width="65" height="65" viewBox="0 0 65 65" fill="none" xmlns="http://www.w3.org/2000/svg">
<rect width="65" height="65" rx="22" fill="#EEF0FF"/>
<path fill-rule="evenodd" clip-rule="evenodd" d="M30 31.75C29.31 31.75 28.75 32.31 28.75 33C28.75 33.69 29.31 34.25 30 34.25C30.69 34.25 31.25 33.69 31.25 33C31.25 32.31 30.69 31.75 30 31.75ZM36 31.75C35.31 31.75 34.75 32.31 34.75 33C34.75 33.69 35.31 34.25 36 34.25C36.69 34.25 37.25 33.69 37.25 33C37.25 32.31 36.69 31.75 36 31.75ZM33 22C27.48 22 23 26.48 23 32C23 37.52 27.48 42 33 42C38.52 42 43 37.52 43 32C43 26.48 38.52 22 33 22ZM33 40C28.59 40 25 36.41 25 32C25 31.71 25.02 31.42 25.05 31.14C27.41 30.09 29.28 28.16 30.26 25.77C32.07 28.33 35.05 30 38.42 30C39.2 30 39.95 29.91 40.67 29.74C40.88 30.45 41 31.21 41 32C41 36.41 37.41 40 33 40Z" fill="#465DFF"/>
</svg>
