<svg width="18" height="18" viewBox="0 0 18 18" fill="none" xmlns="http://www.w3.org/2000/svg">
<path d="M9 0C4.05 0 0 4.041 0 9.018C0 13.518 3.294 17.253 7.596 17.928V11.628H5.31V9.018H7.596V7.029C7.596 4.77 8.937 3.528 10.998 3.528C11.979 3.528 13.005 3.699 13.005 3.699V5.922H11.871C10.755 5.922 10.404 6.615 10.404 7.326V9.018H12.906L12.501 11.628H10.404V17.928C12.5248 17.5931 14.456 16.511 15.8489 14.8771C17.2419 13.2431 18.0048 11.1651 18 9.018C18 4.041 13.95 0 9 0Z" fill="#AFB6CF"/>
</svg>
