<svg width="18" height="18" viewBox="0 0 18 18" fill="none" xmlns="http://www.w3.org/2000/svg">
<path fill-rule="evenodd" clip-rule="evenodd" d="M12.78 0H5.22C3.83557 0 2.50784 0.549963 1.5289 1.5289C0.549963 2.50784 0 3.83557 0 5.22V12.78C0 15.66 2.34 18 5.22 18H12.78C14.1644 18 15.4922 17.45 16.4711 16.4711C17.45 15.4922 18 14.1644 18 12.78V5.22C18 2.34 15.66 0 12.78 0ZM12.6052 4.16743C12.6018 4.12866 12.6001 4.08943 12.6001 4.0498C12.6001 3.30422 13.2045 2.6998 13.9501 2.6998C14.6957 2.6998 15.3001 3.30422 15.3001 4.0498C15.3001 4.79539 14.6957 5.39981 13.9501 5.39981C13.9107 5.39981 13.8716 5.39811 13.8331 5.3948C13.181 5.33881 12.6614 4.81936 12.6052 4.16743ZM12.6001 8.99981C12.6001 10.988 10.9883 12.5998 9.0001 12.5998C7.01187 12.5998 5.4001 10.988 5.4001 8.99981C5.4001 7.01158 7.01187 5.39981 9.0001 5.39981C10.9883 5.39981 12.6001 7.01158 12.6001 8.99981Z" fill="#AFB6CF"/>
</svg>
