<svg width="24" height="18" viewBox="0 0 24 18" fill="none" xmlns="http://www.w3.org/2000/svg">
<path d="M9.25714 12.4713L15.2627 8.9999L9.25714 5.52847V12.4713ZM22.6337 3.4109C22.7841 3.95476 22.8883 4.68376 22.9577 5.60947C23.0387 6.53519 23.0734 7.33362 23.0734 8.0279L23.1429 8.9999C23.1429 11.534 22.9577 13.397 22.6337 14.5889C22.3444 15.6303 21.6733 16.3015 20.6319 16.5908C20.088 16.7412 19.0929 16.8453 17.5654 16.9148C16.0611 16.9958 14.6841 17.0305 13.4113 17.0305L11.5714 17.0999C6.723 17.0999 3.70286 16.9148 2.511 16.5908C1.46957 16.3015 0.798429 15.6303 0.509143 14.5889C0.358714 14.045 0.254572 13.316 0.185143 12.3903C0.104143 11.4646 0.0694285 10.6662 0.0694285 9.9719L0 8.9999C0 6.46576 0.185143 4.60276 0.509143 3.4109C0.798429 2.36947 1.46957 1.69833 2.511 1.40905C3.05486 1.25862 4.05 1.15447 5.57743 1.08505C7.08171 1.00405 8.45871 0.969331 9.73157 0.969331L11.5714 0.899902C16.4199 0.899902 19.44 1.08505 20.6319 1.40905C21.6733 1.69833 22.3444 2.36947 22.6337 3.4109Z" fill="#AFB6CF"/>
</svg>
